<svg xmlns="http://www.w3.org/2000/svg" width="810" viewBox="0 0 810 810" height="810" version="1.0"><defs><clipPath id="a"><path d="M 122.09375 34.4375 L 688.222656 34.4375 L 688.222656 685.707031 L 122.09375 685.707031 Z M 122.09375 34.4375"/></clipPath><clipPath id="b"><path d="M 149 108.410156 L 651.515625 108.410156 L 651.515625 775.4375 L 149 775.4375 Z M 149 108.410156"/></clipPath></defs><g clip-path="url(#a)"><path fill="#8B73FF" d="M 480.617188 685.394531 C 210.480469 685.394531 144.917969 575.277344 124.65625 482.128906 C 104.398438 388.980469 207.097656 65.066406 326.675781 39.097656 C 446.246094 13.128906 629.203125 100.25 671.851562 185.515625 C 710.53125 262.835938 693.230469 685.394531 480.617188 685.394531"/></g><path fill="#F2AB8F" d="M 284.25 148.191406 L 283.949219 155.433594 C 285.238281 153.980469 286.765625 152.738281 288.441406 151.734375 C 289.355469 151.179688 290.316406 150.722656 291.304688 150.324219 C 292.527344 149.828125 293.800781 149.425781 295.09375 149.125 C 297.433594 148.660156 299.851562 148.511719 302.222656 148.792969 C 303.078125 148.898438 303.925781 149.074219 304.761719 149.28125 C 306.132812 149.628906 307.457031 150.113281 308.703125 150.757812 L 307.539062 143.71875 C 307.539062 143.71875 314.402344 138.335938 315.5625 134.121094 C 316.722656 129.898438 319.992188 123.992188 320.097656 119.773438 C 320.207031 115.558594 313.554688 120.933594 312.078125 123.671875 C 310.601562 126.417969 307.539062 131.058594 307.539062 131.058594 C 307.539062 131.058594 305.847656 113.132812 305.429688 112.917969 L 301.214844 90.972656 C 300.863281 89.136719 298.324219 88.503906 297.386719 90.125 C 297.3125 90.253906 297.242188 90.40625 297.199219 90.5625 C 296.773438 91.964844 297.691406 107.800781 298.207031 116.027344 C 297.910156 116.167969 297.609375 116.296875 297.300781 116.4375 L 290.253906 92.097656 C 289.71875 90.269531 287.117188 89.753906 286.34375 91.417969 C 286.28125 91.554688 286.230469 91.707031 286.199219 91.871094 C 285.878906 93.445312 288.988281 112.75 290.132812 119.742188 C 290.109375 119.753906 290.082031 119.757812 290.066406 119.773438 L 281.265625 98.648438 C 280.542969 96.925781 277.925781 96.832031 277.347656 98.609375 C 277.296875 98.753906 277.265625 98.910156 277.25 99.074219 C 277.128906 100.480469 281.011719 114.789062 283.269531 122.925781 C 283.042969 123.03125 282.824219 123.132812 282.609375 123.238281 L 276.023438 107.710938 C 275.292969 105.984375 272.679688 105.902344 272.105469 107.679688 C 272.054688 107.832031 272.023438 107.988281 272.011719 108.152344 C 271.90625 109.351562 274.734375 119.867188 276.984375 127.996094 C 277.199219 132.769531 278.34375 144.328125 284.25 148.191406 Z M 442.535156 329.5625 C 437.539062 326.847656 432.585938 324.042969 427.695312 321.121094 C 427.613281 321.078125 427.570312 321 427.558594 320.917969 L 427.035156 320.65625 C 427.035156 320.65625 420.359375 328.066406 417.40625 331.867188 C 416.65625 332.824219 411.183594 334.191406 403.417969 335.707031 C 397.285156 336.90625 389.726562 338.1875 381.933594 339.425781 C 360.5625 342.828125 337.472656 345.902344 337.472656 345.902344 C 337.472656 345.902344 327.8125 336.089844 317.867188 336.089844 C 307.929688 336.089844 302.773438 335.984375 303.234375 338.199219 C 303.691406 340.417969 317.589844 345.6875 317.589844 345.6875 L 279.214844 345.902344 C 279.214844 345.902344 300.75 359.609375 315.9375 359.820312 C 331.125 360.027344 337.472656 359.820312 337.472656 359.820312 C 337.472656 359.820312 361.707031 359.820312 385.8125 359.820312 C 406.582031 359.820312 427.253906 359.820312 432.238281 359.820312 C 441.597656 359.820312 453.371094 341.90625 456.296875 337.214844 C 451.738281 334.621094 447.136719 332.101562 442.535156 329.5625 Z M 424.539062 155.933594 C 424.050781 155.527344 423.601562 155.074219 423.214844 154.578125 C 423.746094 155.375 424.210938 156.300781 424.433594 157.234375 C 424.464844 156.800781 424.5 156.363281 424.539062 155.933594 Z M 381.613281 169.703125 L 381.632812 169.703125 C 382.242188 169.605469 382.800781 169.546875 383.359375 169.566406 C 383.914062 169.597656 384.453125 169.660156 384.976562 169.796875 C 385.511719 169.917969 386.011719 170.117188 386.511719 170.34375 C 387.011719 170.582031 387.472656 170.890625 387.960938 171.25 L 387.980469 171.261719 C 388.082031 171.332031 388.207031 171.355469 388.332031 171.3125 C 388.527344 171.242188 388.628906 171.023438 388.558594 170.828125 C 388.320312 170.164062 387.84375 169.597656 387.28125 169.152344 C 386.722656 168.691406 386.042969 168.402344 385.351562 168.234375 C 383.964844 167.921875 382.375 168.183594 381.34375 169.164062 C 381.273438 169.226562 381.230469 169.332031 381.25 169.441406 C 381.28125 169.617188 381.441406 169.734375 381.613281 169.703125 Z M 383.109375 161.273438 L 383.121094 161.28125 C 383.636719 161.550781 384.128906 161.789062 384.578125 162.070312 C 385.027344 162.359375 385.472656 162.636719 385.875 162.964844 C 386.296875 163.265625 386.679688 163.625 387.070312 163.976562 C 387.457031 164.339844 387.816406 164.734375 388.21875 165.148438 L 388.226562 165.164062 C 388.308594 165.25 388.425781 165.292969 388.550781 165.277344 C 388.761719 165.25 388.90625 165.0625 388.878906 164.847656 C 388.792969 164.207031 388.519531 163.609375 388.167969 163.070312 C 387.824219 162.523438 387.359375 162.066406 386.835938 161.675781 C 386.316406 161.300781 385.738281 160.984375 385.109375 160.820312 C 384.492188 160.644531 383.84375 160.566406 383.210938 160.671875 C 383.117188 160.683594 383.027344 160.746094 382.976562 160.835938 C 382.894531 160.992188 382.953125 161.1875 383.109375 161.273438 Z M 388.074219 175.011719 C 387.136719 176.382812 386.109375 177.78125 385.367188 179.441406 C 384.65625 181.085938 384.257812 183.050781 384.886719 184.90625 C 385.492188 186.734375 387.21875 188.246094 389.167969 188.117188 C 389.308594 188.101562 389.425781 188.003906 389.453125 187.859375 C 389.476562 187.6875 389.363281 187.53125 389.195312 187.507812 L 389.179688 187.5 C 387.652344 187.253906 386.515625 185.910156 386.1875 184.527344 C 385.867188 183.082031 386.1875 181.511719 386.835938 180.085938 C 387.472656 178.636719 388.441406 177.265625 389.289062 175.757812 C 390.128906 174.265625 390.917969 172.582031 390.964844 170.765625 C 390.972656 170.601562 390.851562 170.4375 390.683594 170.402344 C 390.488281 170.351562 390.292969 170.476562 390.242188 170.671875 C 389.835938 172.242188 389.003906 173.644531 388.074219 175.011719 Z M 390.816406 194.980469 C 390.703125 195.105469 390.707031 195.308594 390.835938 195.425781 C 391.671875 196.199219 392.863281 196.550781 394.007812 196.558594 C 395.164062 196.578125 396.296875 196.257812 397.316406 195.730469 C 398.308594 195.1875 399.183594 194.480469 399.90625 193.675781 C 400.632812 192.882812 401.269531 192.035156 401.808594 191.136719 C 401.886719 191.003906 401.878906 190.839844 401.777344 190.714844 C 401.652344 190.550781 401.425781 190.527344 401.261719 190.652344 C 400.519531 191.238281 399.84375 191.867188 399.15625 192.441406 C 399.082031 192.511719 399 192.582031 398.925781 192.644531 C 398.347656 193.117188 397.769531 193.542969 397.171875 193.917969 C 396.964844 194.050781 396.761719 194.203125 396.554688 194.316406 C 394.933594 195.1875 392.992188 195.601562 391.167969 194.90625 L 391.15625 194.898438 C 391.042969 194.863281 390.910156 194.886719 390.816406 194.980469 Z M 399.269531 159.886719 C 399.28125 160.054688 399.433594 160.179688 399.609375 160.167969 C 400.714844 160.082031 401.789062 160.105469 402.835938 160.28125 C 403.878906 160.476562 404.882812 160.773438 405.808594 161.238281 C 406.746094 161.6875 407.597656 162.296875 408.382812 162.996094 C 409.164062 163.707031 409.835938 164.539062 410.453125 165.457031 C 410.535156 165.582031 410.699219 165.652344 410.855469 165.609375 C 411.050781 165.558594 411.167969 165.355469 411.117188 165.164062 C 410.816406 164 410.203125 162.933594 409.410156 162.007812 C 408.625 161.078125 407.617188 160.332031 406.511719 159.792969 C 405.394531 159.269531 404.1875 158.960938 402.964844 158.929688 C 401.753906 158.894531 400.539062 159.089844 399.453125 159.570312 C 399.332031 159.628906 399.257812 159.753906 399.269531 159.886719 Z M 408.089844 169.949219 C 408.089844 168.855469 407.203125 167.964844 406.101562 167.964844 C 405.007812 167.964844 404.117188 168.855469 404.117188 169.949219 C 404.117188 171.042969 405.007812 171.933594 406.101562 171.933594 C 407.203125 171.933594 408.089844 171.042969 408.089844 169.949219 Z M 381.4375 197.882812 C 376.601562 183.675781 380.859375 156.890625 381.316406 146.714844 C 381.410156 144.535156 381.8125 142.375 382.480469 140.304688 C 383.71875 139.226562 385.253906 138.460938 386.804688 138.175781 C 384.917969 142.871094 386.71875 148.339844 389.773438 152.375 C 390.695312 153.59375 391.785156 154.765625 393.199219 155.355469 C 394.613281 155.949219 396.421875 155.808594 397.460938 154.679688 C 397.484375 154.652344 397.496094 154.621094 397.523438 154.589844 C 398.007812 154.007812 398.183594 153.191406 398.050781 152.449219 C 399.402344 154.011719 401.128906 155.25 403.0625 155.996094 C 404.015625 156.363281 405.089844 156.613281 406.066406 156.273438 C 407.222656 155.871094 407.96875 154.683594 408.203125 153.480469 C 408.429688 152.273438 408.234375 151.027344 408.039062 149.8125 C 410.257812 153.832031 413.488281 157.292969 417.355469 159.765625 C 418.566406 160.546875 419.90625 161.242188 421.347656 161.242188 C 422.523438 161.238281 423.734375 160.613281 424.277344 159.617188 C 424.167969 161.640625 424.132812 163.667969 424.15625 165.691406 C 425.273438 164.058594 426.496094 162.4375 428.25 161.53125 C 430.164062 160.546875 432.894531 160.777344 434.03125 162.613281 C 434.90625 164.027344 434.578125 165.847656 434.113281 167.441406 C 433.308594 170.207031 432.113281 172.945312 430.082031 174.988281 C 428.71875 176.363281 426.910156 177.363281 425.015625 177.6875 C 425.804688 183.597656 427.128906 189.433594 428.988281 195.101562 C 430.78125 200.578125 433.171875 206.042969 437.289062 210.074219 C 437.589844 210.363281 437.921875 210.648438 438.269531 210.898438 C 438.625 213.710938 438.976562 216.300781 439.253906 218.261719 C 439.5625 220.464844 439.777344 221.859375 439.777344 221.859375 L 432.503906 225.238281 L 414.414062 233.625 C 410.515625 235.433594 406.171875 232.253906 406.699219 227.992188 C 406.707031 227.953125 406.707031 227.910156 406.710938 227.863281 C 406.96875 225.742188 407.109375 223.425781 407.007812 221.050781 C 406.90625 218.695312 406.582031 216.289062 405.894531 213.953125 C 405.664062 213.148438 405.296875 212.558594 404.847656 212.105469 C 405.261719 212.105469 405.683594 212.109375 406.097656 212.09375 C 408.382812 211.980469 410.636719 211.433594 412.777344 210.632812 C 414.890625 209.761719 416.902344 208.613281 418.65625 207.136719 C 420.402344 205.660156 421.910156 203.902344 422.988281 201.910156 C 423.070312 201.753906 423.03125 201.558594 422.894531 201.445312 C 422.730469 201.320312 422.503906 201.351562 422.378906 201.507812 C 421.03125 203.222656 419.492188 204.742188 417.769531 206.023438 C 416.054688 207.300781 414.179688 208.375 412.179688 209.140625 C 410.214844 209.96875 408.109375 210.472656 405.984375 210.734375 C 404.714844 210.890625 403.4375 210.929688 402.148438 210.875 C 397.113281 209.980469 388.484375 212.457031 382.585938 200.660156 C 382.152344 199.804688 381.777344 198.875 381.4375 197.882812 Z M 308.695312 151.570312 C 306.554688 150.816406 304.328125 150.34375 302.089844 150.210938 C 300.976562 150.144531 299.859375 150.144531 298.746094 150.226562 C 298.652344 150.230469 298.558594 150.242188 298.464844 150.25 C 297.4375 150.332031 296.425781 150.476562 295.421875 150.703125 C 293.21875 151.117188 291.101562 151.902344 289.101562 152.921875 C 287.230469 153.875 285.488281 155.101562 283.898438 156.53125 L 280.019531 248.027344 L 318.351562 248.027344 C 324.015625 248.027344 328.84375 252.144531 329.734375 257.734375 L 330.953125 265.390625 L 337.976562 265.304688 L 321.789062 230.300781 L 308.835938 151.570312 C 308.785156 151.570312 308.742188 151.582031 308.695312 151.570312 Z M 355.484375 226.644531 L 328.925781 229.53125 Z M 355.484375 226.644531"/><path fill="#FFF" d="M 236.773438 413.960938 C 240.589844 413.960938 243.695312 417.066406 243.695312 420.878906 C 243.695312 424.691406 240.589844 427.789062 236.773438 427.789062 C 232.957031 427.789062 229.851562 424.691406 229.851562 420.878906 C 229.851562 417.066406 232.957031 413.960938 236.773438 413.960938 Z M 236.773438 429.394531 C 241.476562 429.394531 245.304688 425.578125 245.304688 420.878906 C 245.304688 416.179688 241.476562 412.355469 236.773438 412.355469 C 232.070312 412.355469 228.242188 416.179688 228.242188 420.878906 C 228.242188 425.578125 232.070312 429.394531 236.773438 429.394531 Z M 256.78125 629.300781 L 224.453125 629.300781 C 223.605469 628.769531 222.792969 628.230469 221.964844 627.691406 L 256.78125 627.691406 Z M 263.859375 627.691406 L 285.320312 627.691406 L 285.320312 629.300781 L 263.859375 629.300781 Z M 223.09375 618.085938 L 285.320312 618.085938 L 285.320312 619.695312 L 223.09375 619.695312 Z M 238.972656 608.480469 L 285.320312 608.480469 L 285.320312 610.089844 L 238.972656 610.089844 Z M 257.421875 646.90625 L 285.320312 646.90625 L 285.320312 648.515625 L 260.988281 648.515625 C 259.78125 647.980469 258.605469 647.441406 257.421875 646.90625 Z M 252.273438 637.300781 L 285.320312 637.300781 L 285.320312 638.910156 L 252.273438 638.910156 Z M 238.125 637.300781 L 243.265625 637.300781 L 243.265625 638.910156 L 241.089844 638.910156 C 240.09375 638.375 239.113281 637.835938 238.125 637.300781 Z M 208.132812 618.085938 L 216.015625 618.085938 L 216.015625 619.695312 L 210.316406 619.695312 C 209.585938 619.152344 208.851562 618.621094 208.132812 618.085938 Z M 231.890625 610.089844 L 198.089844 610.089844 C 197.480469 609.574219 196.875 609.054688 196.273438 608.539062 L 196.273438 608.480469 L 231.890625 608.480469 Z M 196.273438 562.433594 L 256.78125 562.433594 L 256.78125 564.039062 L 196.273438 564.039062 Z M 263.859375 562.433594 L 285.320312 562.433594 L 285.320312 564.039062 L 263.859375 564.039062 Z M 223.09375 552.828125 L 285.320312 552.828125 L 285.320312 554.4375 L 223.09375 554.4375 Z M 238.972656 543.21875 L 285.320312 543.21875 L 285.320312 544.824219 L 238.972656 544.824219 Z M 196.273438 581.640625 L 285.320312 581.640625 L 285.320312 583.25 L 196.273438 583.25 Z M 263.859375 592.859375 L 196.273438 592.859375 L 196.273438 591.25 L 263.859375 591.25 Z M 252.273438 572.035156 L 285.320312 572.035156 L 285.320312 573.644531 L 252.273438 573.644531 Z M 196.273438 572.035156 L 243.265625 572.035156 L 243.265625 573.644531 L 196.273438 573.644531 Z M 196.273438 552.828125 L 216.015625 552.828125 L 216.015625 554.4375 L 196.273438 554.4375 Z M 196.273438 543.21875 L 231.890625 543.21875 L 231.890625 544.824219 L 196.273438 544.824219 Z M 196.273438 524.007812 L 214.082031 524.007812 L 214.082031 525.617188 L 196.273438 525.617188 Z M 231.890625 516.011719 L 196.273438 516.011719 L 196.273438 514.402344 L 231.890625 514.402344 Z M 184.746094 500.621094 L 297.921875 500.621094 L 297.921875 662.15625 C 297.382812 661.996094 296.855469 661.820312 296.3125 661.648438 L 296.3125 502.230469 L 186.355469 502.230469 L 186.355469 599.441406 C 185.808594 598.910156 185.277344 598.367188 184.746094 597.828125 Z M 186.355469 457.355469 L 214.796875 444.011719 L 258.433594 485.992188 L 186.355469 485.992188 Z M 186.355469 399.136719 L 296.3125 399.136719 L 296.3125 462.554688 L 265.28125 440.015625 L 264.902344 439.734375 L 229.574219 456.003906 L 215.113281 442.089844 L 186.355469 455.578125 Z M 296.3125 485.992188 L 260.753906 485.992188 L 230.820312 457.203125 L 264.714844 441.59375 L 296.3125 464.539062 Z M 184.746094 487.601562 L 297.921875 487.601562 L 297.921875 397.527344 L 184.746094 397.527344 Z M 582.84375 155.640625 C 582.84375 159.453125 579.738281 162.554688 575.921875 162.554688 C 572.109375 162.554688 569.007812 159.453125 569.007812 155.640625 C 569.007812 151.832031 572.109375 148.730469 575.921875 148.730469 C 579.738281 148.730469 582.84375 151.832031 582.84375 155.640625 Z M 567.398438 155.640625 C 567.398438 160.34375 571.222656 164.164062 575.921875 164.164062 C 580.632812 164.164062 584.453125 160.34375 584.453125 155.640625 C 584.453125 150.941406 580.632812 147.121094 575.921875 147.121094 C 571.222656 147.121094 567.398438 150.941406 567.398438 155.640625 Z M 595.9375 364.066406 L 535.429688 364.066406 L 535.429688 362.460938 L 595.9375 362.460938 Z M 603.015625 362.460938 L 624.46875 362.460938 L 624.46875 364.066406 L 603.015625 364.066406 Z M 562.246094 352.855469 L 624.46875 352.855469 L 624.46875 354.464844 L 562.246094 354.464844 Z M 578.125 343.246094 L 624.46875 343.246094 L 624.46875 344.851562 L 578.125 344.851562 Z M 535.429688 381.675781 L 624.46875 381.675781 L 624.46875 383.28125 L 535.429688 383.28125 Z M 535.429688 391.277344 L 603.015625 391.277344 L 603.015625 392.886719 L 535.429688 392.886719 Z M 591.429688 372.070312 L 624.46875 372.070312 L 624.46875 373.679688 L 591.429688 373.679688 Z M 582.417969 373.679688 L 535.429688 373.679688 L 535.429688 372.070312 L 582.417969 372.070312 Z M 555.167969 354.464844 L 535.429688 354.464844 L 535.429688 352.855469 L 555.167969 352.855469 Z M 571.046875 344.851562 L 535.429688 344.851562 L 535.429688 343.246094 L 571.046875 343.246094 Z M 595.9375 298.808594 L 535.429688 298.808594 L 535.429688 297.199219 L 595.9375 297.199219 Z M 603.015625 297.199219 L 624.46875 297.199219 L 624.46875 298.808594 L 603.015625 298.808594 Z M 562.246094 287.597656 L 624.46875 287.597656 L 624.46875 289.203125 L 562.246094 289.203125 Z M 578.125 277.984375 L 624.46875 277.984375 L 624.46875 279.59375 L 578.125 279.59375 Z M 535.429688 316.414062 L 624.46875 316.414062 L 624.46875 318.023438 L 535.429688 318.023438 Z M 603.015625 327.628906 L 535.429688 327.628906 L 535.429688 326.019531 L 603.015625 326.019531 Z M 591.429688 306.804688 L 624.46875 306.804688 L 624.46875 308.414062 L 591.429688 308.414062 Z M 582.417969 308.414062 L 535.429688 308.414062 L 535.429688 306.804688 L 582.417969 306.804688 Z M 555.167969 289.203125 L 535.429688 289.203125 L 535.429688 287.597656 L 555.167969 287.597656 Z M 571.046875 279.59375 L 535.429688 279.59375 L 535.429688 277.984375 L 571.046875 277.984375 Z M 553.238281 260.382812 L 535.429688 260.382812 L 535.429688 258.777344 L 553.238281 258.777344 Z M 571.046875 250.773438 L 535.429688 250.773438 L 535.429688 249.164062 L 571.046875 249.164062 Z M 525.503906 237 L 635.464844 237 L 635.464844 411.617188 L 525.503906 411.617188 Z M 523.894531 413.226562 L 637.074219 413.226562 L 637.074219 235.390625 L 523.894531 235.390625 Z M 635.464844 220.761719 L 599.910156 220.761719 L 569.976562 191.972656 L 603.871094 176.363281 L 635.464844 199.308594 Z M 525.503906 220.761719 L 525.503906 192.121094 L 553.949219 178.78125 L 597.585938 220.761719 Z M 635.464844 139.121094 L 635.464844 197.324219 L 604.050781 174.507812 L 568.730469 190.773438 L 554.269531 176.859375 L 525.503906 190.34375 L 525.503906 133.90625 L 629.761719 133.90625 C 629.160156 133.367188 628.535156 132.832031 627.921875 132.296875 L 523.894531 132.296875 L 523.894531 222.367188 L 637.074219 222.367188 L 637.074219 140.652344 C 636.542969 140.144531 636.003906 139.628906 635.464844 139.121094 Z M 137.109375 114.207031 L 233.554688 114.207031 L 233.554688 212.519531 L 137.109375 212.519531 Z M 264.28125 306.101562 C 252.375 302.671875 246.625 287.828125 253.863281 287.828125 C 259.917969 287.828125 262.128906 291.445312 262.128906 291.445312 C 262.128906 291.445312 264.386719 287.828125 268.980469 287.828125 C 276.230469 287.828125 275.117188 302.671875 264.28125 306.101562 Z M 508.074219 759.394531 C 507.714844 761.167969 506.652344 761.363281 505.703125 759.824219 C 504.753906 758.289062 504.269531 755.609375 504.628906 753.832031 C 504.988281 752.066406 506.050781 751.871094 507.003906 753.410156 C 507.953125 754.941406 508.4375 757.625 508.074219 759.394531 Z M 348.667969 758.449219 C 348.472656 760.820312 346.394531 762.742188 344.015625 762.742188 C 341.640625 762.742188 339.875 760.820312 340.070312 758.449219 C 340.265625 756.074219 342.34375 754.152344 344.722656 754.152344 C 347.097656 754.152344 348.871094 756.074219 348.667969 758.449219 Z M 442.628906 225.164062 C 439.664062 226.828125 436.644531 228.390625 433.628906 229.949219 C 431.574219 231.011719 429.5 232.042969 427.425781 233.074219 C 426.457031 233.550781 425.488281 234.027344 424.519531 234.515625 C 421.472656 235.949219 418.316406 237.574219 414.777344 238.046875 C 413.011719 238.28125 411.199219 238.199219 409.484375 237.707031 C 407.78125 237.199219 406.152344 236.28125 405.027344 234.898438 C 404.921875 234.761719 404.941406 234.574219 405.070312 234.46875 C 405.199219 234.367188 405.375 234.378906 405.480469 234.484375 C 407.875 236.757812 411.425781 237.28125 414.570312 236.710938 C 417.78125 236.125 420.78125 234.605469 423.808594 233.074219 C 425.5625 232.238281 427.3125 231.390625 429.058594 230.546875 C 430.371094 229.917969 431.6875 229.289062 433.007812 228.675781 C 436.085938 227.242188 439.171875 225.828125 442.308594 224.503906 C 442.492188 224.429688 442.707031 224.515625 442.789062 224.699219 C 442.855469 224.875 442.789062 225.070312 442.628906 225.164062 Z M 439.253906 218.261719 C 439.5625 220.464844 439.777344 221.859375 439.777344 221.859375 L 432.503906 225.238281 L 414.414062 233.625 C 410.515625 235.433594 406.171875 232.253906 406.699219 227.992188 C 406.707031 227.953125 406.707031 227.910156 406.710938 227.863281 C 406.96875 225.742188 407.109375 223.425781 407.007812 221.050781 L 355.484375 226.644531 L 328.925781 229.53125 C 330.3125 232.75 331.644531 236 332.953125 239.253906 C 334.386719 242.816406 335.738281 246.40625 337.140625 249.976562 L 341.121094 260.785156 C 341.652344 262.269531 342.175781 263.757812 342.695312 265.246094 C 343.4375 267.382812 344.175781 269.523438 344.867188 271.679688 C 344.929688 271.875 344.820312 272.074219 344.625 272.136719 C 344.449219 272.195312 344.257812 272.105469 344.1875 271.9375 C 343.21875 269.726562 342.300781 267.496094 341.390625 265.257812 C 340.855469 263.933594 340.320312 262.613281 339.785156 261.289062 L 335.632812 250.546875 C 334.316406 246.941406 332.960938 243.347656 331.679688 239.730469 C 330.488281 236.371094 329.320312 233.003906 328.21875 229.605469 L 321.789062 230.300781 L 337.976562 265.304688 L 341.101562 272.066406 L 376.011719 278.558594 C 376.433594 275.699219 377.042969 272.867188 377.804688 270.070312 C 378.722656 266.679688 379.914062 263.367188 381.253906 260.121094 C 382.648438 256.898438 384.203125 253.738281 385.988281 250.710938 C 387.78125 247.6875 389.753906 244.78125 391.964844 242.0625 C 392.089844 241.902344 392.316406 241.886719 392.476562 242.003906 C 392.621094 242.128906 392.652344 242.335938 392.550781 242.488281 C 390.664062 245.410156 388.867188 248.367188 387.226562 251.414062 C 385.585938 254.453125 384.050781 257.550781 382.730469 260.75 C 381.605469 263.300781 380.652344 265.917969 379.757812 268.5625 C 379.546875 269.191406 379.3125 269.820312 379.109375 270.453125 C 378.289062 273.003906 377.589844 275.59375 376.9375 278.199219 C 376.898438 278.367188 376.847656 278.539062 376.8125 278.703125 L 376.867188 278.714844 C 375.246094 292.339844 377.796875 314.136719 380.828125 332.824219 L 403.753906 332.824219 C 403.753906 333.816406 403.632812 334.777344 403.417969 335.707031 C 411.183594 334.191406 416.65625 332.824219 417.40625 331.867188 C 420.359375 328.066406 427.035156 320.65625 427.035156 320.65625 L 427.558594 320.917969 C 427.539062 320.851562 427.542969 320.769531 427.589844 320.699219 C 427.671875 320.5625 427.851562 320.511719 427.996094 320.585938 C 432.988281 323.304688 438.074219 325.851562 443.113281 328.484375 C 447.921875 330.964844 452.730469 333.476562 457.453125 336.140625 C 461.351562 327.972656 464.800781 319.601562 467.679688 311.019531 C 469.15625 306.609375 470.546875 302.164062 471.753906 297.660156 C 472.964844 293.160156 474.105469 288.640625 475.039062 284.070312 C 475.085938 283.871094 475.273438 283.746094 475.472656 283.789062 C 475.667969 283.828125 475.792969 284.007812 475.757812 284.203125 C 474.976562 288.820312 474.078125 293.425781 472.953125 297.972656 C 471.820312 302.519531 470.570312 307.042969 469.105469 311.492188 C 466.191406 320.40625 462.667969 329.128906 458.476562 337.527344 L 458.117188 338.242188 L 457.425781 337.847656 C 457.050781 337.632812 456.671875 337.425781 456.296875 337.214844 C 453.371094 341.90625 441.597656 359.820312 432.238281 359.820312 C 427.253906 359.820312 406.582031 359.820312 385.8125 359.820312 C 386.90625 365.128906 387.640625 368.359375 387.640625 368.359375 L 411.664062 368.359375 C 411.664062 368.28125 411.660156 368.214844 411.660156 368.144531 C 411.660156 367.960938 411.804688 367.824219 411.980469 367.828125 C 412.101562 367.828125 412.199219 367.898438 412.257812 367.992188 C 412.320312 368.113281 412.363281 368.238281 412.414062 368.359375 L 441.75 368.359375 C 441.808594 368.238281 441.90625 368.144531 442.046875 368.15625 C 442.164062 368.167969 442.265625 368.246094 442.308594 368.34375 C 442.308594 368.351562 442.316406 368.351562 442.316406 368.359375 L 455.082031 368.359375 C 455.082031 368.359375 488.855469 300.863281 482.949219 263.738281 C 477.8125 231.484375 447.207031 220.570312 439.253906 218.261719"/><path fill="#F08990" d="M 146.5625 126.574219 L 224.101562 126.574219 L 224.101562 186.632812 L 146.5625 186.632812 Z M 539.503906 599.167969 L 651.078125 599.167969 L 651.078125 697.480469 L 539.503906 697.480469 Z M 651.078125 486.632812 L 651.078125 584.945312 L 539.503906 584.945312 L 539.503906 486.632812 Z M 413.082031 370.179688 C 412.910156 369.558594 412.695312 368.949219 412.414062 368.359375 L 441.75 368.359375 C 441.738281 368.390625 441.707031 368.40625 441.707031 368.445312 C 441.636719 369.257812 441.667969 370.042969 441.710938 370.832031 C 441.75 371.625 441.863281 372.402344 441.96875 373.183594 C 442.097656 373.960938 442.234375 374.734375 442.433594 375.5 C 442.566406 376.015625 442.726562 376.53125 442.894531 377.046875 C 442.195312 377.03125 441.5 377.015625 440.808594 377 L 427.109375 376.914062 L 413.414062 377.039062 C 413.3125 377.039062 413.210938 377.039062 413.105469 377.046875 C 413.339844 376.308594 413.445312 375.554688 413.507812 374.796875 C 413.582031 374.023438 413.550781 373.246094 413.496094 372.472656 C 413.40625 371.699219 413.300781 370.933594 413.082031 370.179688 Z M 453.316406 588.222656 C 453.164062 588.324219 452.964844 588.292969 452.84375 588.160156 C 451.140625 586.214844 449.632812 584.109375 448.25 581.910156 C 446.875 579.71875 445.683594 577.414062 444.589844 575.0625 C 443.566406 572.683594 442.625 570.265625 441.90625 567.777344 C 441.183594 565.289062 440.613281 562.765625 440.285156 560.203125 C 440.265625 560.03125 440.386719 559.882812 440.554688 559.855469 C 440.707031 559.835938 440.851562 559.933594 440.890625 560.078125 C 441.597656 562.539062 442.339844 564.96875 443.203125 567.355469 C 444.0625 569.742188 444.976562 572.113281 446.054688 574.40625 C 447.074219 576.722656 448.25 578.972656 449.476562 581.1875 C 450.707031 583.414062 452.046875 585.574219 453.429688 587.722656 C 453.535156 587.890625 453.484375 588.117188 453.316406 588.222656 Z M 440.027344 412.429688 C 440.003906 412.339844 440.015625 412.253906 440.054688 412.183594 C 440.28125 411.75 440.570312 411.390625 440.863281 411.046875 C 441.152344 410.695312 441.492188 410.398438 441.832031 410.105469 C 442.183594 409.828125 442.535156 409.550781 442.933594 409.332031 C 443.328125 409.105469 443.730469 408.890625 444.195312 408.753906 C 444.410156 408.699219 444.628906 408.816406 444.6875 409.03125 C 444.71875 409.132812 444.699219 409.238281 444.65625 409.320312 C 444.429688 409.753906 444.132812 410.097656 443.832031 410.4375 C 443.535156 410.785156 443.191406 411.070312 442.84375 411.355469 C 442.484375 411.625 442.128906 411.894531 441.71875 412.101562 C 441.324219 412.320312 440.914062 412.53125 440.441406 412.660156 C 440.265625 412.710938 440.078125 412.605469 440.027344 412.429688 Z M 481.734375 545.539062 C 484.40625 518.542969 501.109375 478.253906 490.046875 443.554688 C 478.976562 408.855469 455.082031 368.359375 455.082031 368.359375 L 442.316406 368.359375 C 442.628906 369.097656 442.851562 369.859375 443.058594 370.617188 C 443.273438 371.378906 443.417969 372.152344 443.554688 372.925781 C 443.679688 373.703125 443.792969 374.480469 443.84375 375.265625 C 443.886719 375.863281 443.898438 376.460938 443.886719 377.0625 C 447.425781 377.125 450.964844 377.203125 454.5 377.347656 C 454.699219 377.359375 454.855469 377.527344 454.851562 377.730469 C 454.835938 377.917969 454.6875 378.070312 454.5 378.082031 C 449.933594 378.269531 445.371094 378.351562 440.808594 378.425781 L 427.109375 378.515625 L 423.535156 378.484375 C 424.40625 381.171875 425.386719 383.808594 426.542969 386.375 C 427.734375 389 429.039062 391.574219 430.566406 394.019531 C 432.03125 396.492188 433.703125 398.847656 435.496094 401.109375 C 437.1875 403.265625 439.027344 405.300781 440.953125 407.273438 C 441.121094 407.128906 441.285156 406.96875 441.453125 406.820312 C 442.246094 406.160156 443.070312 405.519531 443.945312 404.964844 C 444.816406 404.402344 445.710938 403.878906 446.671875 403.472656 C 446.859375 403.390625 447.074219 403.476562 447.15625 403.667969 C 447.21875 403.8125 447.179688 403.972656 447.074219 404.074219 C 446.332031 404.796875 445.558594 405.445312 444.792969 406.101562 L 442.484375 408.050781 L 440.152344 409.964844 C 439.363281 410.601562 438.589844 411.242188 437.746094 411.84375 C 437.601562 411.945312 437.40625 411.914062 437.3125 411.777344 C 437.230469 411.667969 437.230469 411.53125 437.300781 411.425781 C 437.859375 410.542969 438.527344 409.746094 439.21875 408.980469 C 439.589844 408.566406 439.972656 408.183594 440.367188 407.804688 C 438.207031 406.070312 436.21875 404.113281 434.394531 402.015625 C 432.460938 399.785156 430.75 397.359375 429.191406 394.847656 C 427.703125 392.289062 426.351562 389.652344 425.289062 386.894531 C 424.230469 384.160156 423.394531 381.347656 422.875 378.476562 L 413.414062 378.394531 C 408.851562 378.3125 404.285156 378.21875 399.714844 378.019531 C 399.554688 378.011719 399.421875 377.867188 399.425781 377.699219 C 399.433594 377.542969 399.558594 377.414062 399.714844 377.410156 C 403.933594 377.222656 408.152344 377.132812 412.371094 377.058594 C 412.371094 377.050781 412.371094 377.050781 412.371094 377.050781 C 412.230469 376.292969 412.167969 375.550781 412.085938 374.808594 L 411.890625 372.609375 L 411.742188 370.398438 C 411.703125 369.726562 411.660156 369.054688 411.664062 368.359375 L 387.640625 368.359375 L 427.15625 519.460938 L 485.910156 744.167969 C 487.617188 744.007812 489.335938 743.910156 491.042969 743.84375 C 492.949219 743.75 494.855469 743.730469 496.757812 743.71875 C 498.667969 743.71875 500.574219 743.730469 502.480469 743.8125 C 504.382812 743.878906 506.289062 743.960938 508.191406 744.15625 C 508.394531 744.175781 508.542969 744.359375 508.527344 744.558594 C 508.507812 744.726562 508.363281 744.867188 508.191406 744.886719 C 506.289062 745.074219 504.382812 745.160156 502.480469 745.230469 C 500.574219 745.3125 498.667969 745.320312 496.757812 745.324219 C 494.855469 745.304688 492.949219 745.289062 491.042969 745.199219 C 489.398438 745.128906 487.746094 745.035156 486.097656 744.890625 L 487.140625 748.875 L 508.269531 748.875 C 508.269531 748.875 516.730469 690.027344 503.390625 641.9375 C 490.050781 593.839844 479.058594 572.539062 481.734375 545.539062"/><g clip-path="url(#b)"><path fill="#4856A2" d="M 581.273438 664.789062 C 579.699219 663.246094 576.816406 662.207031 573.503906 662.207031 C 568.519531 662.207031 564.476562 664.550781 564.476562 667.441406 C 564.476562 670.335938 568.519531 672.679688 573.503906 672.679688 C 578.4375 672.679688 582.433594 670.378906 582.515625 667.527344 L 582.578125 667.535156 L 586.371094 634.230469 L 622.953125 629.605469 L 619.492188 659.964844 C 617.925781 658.421875 615.035156 657.378906 611.722656 657.378906 C 606.742188 657.378906 602.699219 659.71875 602.699219 662.617188 C 602.699219 665.503906 606.742188 667.847656 611.722656 667.847656 C 616.65625 667.847656 620.652344 665.550781 620.734375 662.699219 L 620.796875 662.703125 L 624.785156 627.753906 L 584.917969 632.792969 Z M 150.808594 189.265625 L 226.742188 189.265625 L 226.742188 130.820312 L 150.808594 130.820312 Z M 149.199219 129.214844 L 228.351562 129.214844 L 228.351562 190.871094 L 149.199219 190.871094 Z M 651.078125 570.09375 L 651.078125 571.703125 L 569.886719 571.703125 C 569.519531 573.570312 567.871094 574.976562 565.898438 574.976562 C 563.917969 574.976562 562.277344 573.570312 561.898438 571.703125 L 539.503906 571.703125 L 539.503906 570.09375 L 561.898438 570.09375 C 562.277344 568.234375 563.917969 566.828125 565.898438 566.828125 C 567.871094 566.828125 569.519531 568.234375 569.886719 570.09375 Z M 406.101562 167.964844 C 407.203125 167.964844 408.089844 168.855469 408.089844 169.949219 C 408.089844 171.042969 407.203125 171.933594 406.101562 171.933594 C 405.007812 171.933594 404.117188 171.042969 404.117188 169.949219 C 404.117188 168.855469 405.007812 167.964844 406.101562 167.964844 Z M 283.144531 156.796875 C 283.042969 156.683594 283.039062 156.511719 283.125 156.398438 C 283.382812 156.0625 283.664062 155.746094 283.949219 155.433594 C 285.238281 153.980469 286.765625 152.738281 288.441406 151.734375 C 289.355469 151.179688 290.316406 150.722656 291.304688 150.324219 C 292.527344 149.828125 293.800781 149.425781 295.09375 149.125 C 297.433594 148.660156 299.851562 148.511719 302.222656 148.792969 C 303.078125 148.898438 303.925781 149.074219 304.761719 149.28125 C 306.132812 149.628906 307.457031 150.113281 308.703125 150.757812 C 308.796875 150.808594 308.902344 150.851562 309 150.902344 C 309.175781 150.996094 309.238281 151.222656 309.144531 151.398438 C 309.074219 151.511719 308.953125 151.5625 308.835938 151.570312 C 308.785156 151.570312 308.742188 151.582031 308.695312 151.570312 C 306.554688 150.816406 304.328125 150.34375 302.089844 150.210938 C 300.976562 150.144531 299.859375 150.144531 298.746094 150.226562 C 298.652344 150.230469 298.558594 150.242188 298.464844 150.25 C 297.4375 150.332031 296.425781 150.476562 295.421875 150.703125 C 293.21875 151.117188 291.101562 151.902344 289.101562 152.921875 C 287.230469 153.875 285.488281 155.101562 283.898438 156.53125 C 283.792969 156.625 283.683594 156.714844 283.578125 156.808594 C 283.457031 156.925781 283.265625 156.921875 283.144531 156.796875 Z M 485.054688 744.488281 C 485.066406 744.339844 485.1875 744.226562 485.332031 744.214844 C 485.527344 744.195312 485.714844 744.183594 485.910156 744.167969 C 487.617188 744.007812 489.335938 743.910156 491.042969 743.84375 C 492.949219 743.75 494.855469 743.730469 496.757812 743.71875 C 498.667969 743.71875 500.574219 743.730469 502.480469 743.8125 C 504.382812 743.878906 506.289062 743.960938 508.191406 744.15625 C 508.394531 744.175781 508.542969 744.359375 508.527344 744.558594 C 508.507812 744.726562 508.363281 744.867188 508.191406 744.886719 C 506.289062 745.074219 504.382812 745.160156 502.480469 745.230469 C 500.574219 745.3125 498.667969 745.320312 496.757812 745.324219 C 494.855469 745.304688 492.949219 745.289062 491.042969 745.199219 C 489.398438 745.128906 487.746094 745.035156 486.097656 744.890625 C 485.839844 744.867188 485.589844 744.855469 485.332031 744.828125 C 485.160156 744.808594 485.035156 744.660156 485.054688 744.488281 Z M 453.429688 587.722656 C 453.535156 587.890625 453.484375 588.117188 453.316406 588.222656 C 453.164062 588.324219 452.964844 588.292969 452.84375 588.160156 C 451.140625 586.214844 449.632812 584.109375 448.25 581.910156 C 446.875 579.71875 445.683594 577.414062 444.589844 575.0625 C 443.566406 572.683594 442.625 570.265625 441.90625 567.777344 C 441.183594 565.289062 440.613281 562.765625 440.285156 560.203125 C 440.265625 560.03125 440.386719 559.882812 440.554688 559.855469 C 440.707031 559.835938 440.851562 559.933594 440.890625 560.078125 C 441.597656 562.539062 442.339844 564.96875 443.203125 567.355469 C 444.0625 569.742188 444.976562 572.113281 446.054688 574.40625 C 447.074219 576.722656 448.25 578.972656 449.476562 581.1875 C 450.707031 583.414062 452.046875 585.574219 453.429688 587.722656 Z M 440.441406 412.660156 C 440.265625 412.710938 440.078125 412.605469 440.027344 412.429688 C 440.003906 412.339844 440.015625 412.253906 440.054688 412.183594 C 440.28125 411.75 440.570312 411.390625 440.863281 411.046875 C 441.152344 410.695312 441.492188 410.398438 441.832031 410.105469 C 442.183594 409.828125 442.535156 409.550781 442.933594 409.332031 C 443.328125 409.105469 443.730469 408.890625 444.195312 408.753906 C 444.410156 408.699219 444.628906 408.816406 444.6875 409.03125 C 444.71875 409.132812 444.699219 409.238281 444.65625 409.320312 C 444.429688 409.753906 444.132812 410.097656 443.832031 410.4375 C 443.535156 410.785156 443.191406 411.070312 442.84375 411.355469 C 442.484375 411.625 442.128906 411.894531 441.71875 412.101562 C 441.324219 412.320312 440.914062 412.53125 440.441406 412.660156 Z M 454.851562 377.730469 C 454.835938 377.917969 454.6875 378.070312 454.5 378.082031 C 449.933594 378.269531 445.371094 378.351562 440.808594 378.425781 L 427.109375 378.515625 L 423.535156 378.484375 C 424.40625 381.171875 425.386719 383.808594 426.542969 386.375 C 427.734375 389 429.039062 391.574219 430.566406 394.019531 C 432.03125 396.492188 433.703125 398.847656 435.496094 401.109375 C 437.1875 403.265625 439.027344 405.300781 440.953125 407.273438 C 441.121094 407.128906 441.285156 406.96875 441.453125 406.820312 C 442.246094 406.160156 443.070312 405.519531 443.945312 404.964844 C 444.816406 404.402344 445.710938 403.878906 446.671875 403.472656 C 446.859375 403.390625 447.074219 403.476562 447.15625 403.667969 C 447.21875 403.8125 447.179688 403.972656 447.074219 404.074219 C 446.332031 404.796875 445.558594 405.445312 444.792969 406.101562 L 442.484375 408.050781 L 440.152344 409.964844 C 439.363281 410.601562 438.589844 411.242188 437.746094 411.84375 C 437.601562 411.945312 437.40625 411.914062 437.3125 411.777344 C 437.230469 411.667969 437.230469 411.53125 437.300781 411.425781 C 437.859375 410.542969 438.527344 409.746094 439.21875 408.980469 C 439.589844 408.566406 439.972656 408.183594 440.367188 407.804688 C 438.207031 406.070312 436.21875 404.113281 434.394531 402.015625 C 432.460938 399.785156 430.75 397.359375 429.191406 394.847656 C 427.703125 392.289062 426.351562 389.652344 425.289062 386.894531 C 424.230469 384.160156 423.394531 381.347656 422.875 378.476562 L 413.414062 378.394531 C 408.851562 378.3125 404.285156 378.21875 399.714844 378.019531 C 399.554688 378.011719 399.421875 377.867188 399.425781 377.699219 C 399.433594 377.542969 399.558594 377.414062 399.714844 377.410156 C 403.933594 377.222656 408.152344 377.132812 412.371094 377.058594 C 412.371094 377.050781 412.371094 377.050781 412.371094 377.050781 C 412.230469 376.292969 412.167969 375.550781 412.085938 374.808594 L 411.890625 372.609375 L 411.742188 370.398438 C 411.703125 369.726562 411.660156 369.054688 411.664062 368.359375 C 411.664062 368.28125 411.660156 368.214844 411.660156 368.144531 C 411.660156 367.960938 411.804688 367.824219 411.980469 367.828125 C 412.101562 367.828125 412.199219 367.898438 412.257812 367.992188 C 412.320312 368.113281 412.363281 368.238281 412.414062 368.359375 C 412.695312 368.949219 412.910156 369.558594 413.082031 370.179688 C 413.300781 370.933594 413.40625 371.699219 413.496094 372.472656 C 413.550781 373.246094 413.582031 374.023438 413.507812 374.796875 C 413.445312 375.554688 413.339844 376.308594 413.105469 377.046875 C 413.210938 377.039062 413.3125 377.039062 413.414062 377.039062 L 427.109375 376.914062 L 440.808594 377 C 441.5 377.015625 442.195312 377.03125 442.894531 377.046875 C 442.726562 376.53125 442.566406 376.015625 442.433594 375.5 C 442.234375 374.734375 442.097656 373.960938 441.96875 373.183594 C 441.863281 372.402344 441.75 371.625 441.710938 370.832031 C 441.667969 370.042969 441.636719 369.257812 441.707031 368.445312 C 441.707031 368.40625 441.738281 368.390625 441.75 368.359375 C 441.808594 368.238281 441.90625 368.144531 442.046875 368.15625 C 442.164062 368.167969 442.265625 368.246094 442.308594 368.34375 C 442.308594 368.351562 442.316406 368.351562 442.316406 368.359375 C 442.628906 369.097656 442.851562 369.859375 443.058594 370.617188 C 443.273438 371.378906 443.417969 372.152344 443.554688 372.925781 C 443.679688 373.703125 443.792969 374.480469 443.84375 375.265625 C 443.886719 375.863281 443.898438 376.460938 443.886719 377.0625 C 447.425781 377.125 450.964844 377.203125 454.5 377.347656 C 454.699219 377.359375 454.855469 377.527344 454.851562 377.730469 Z M 475.757812 284.203125 C 474.976562 288.820312 474.078125 293.425781 472.953125 297.972656 C 471.820312 302.519531 470.570312 307.042969 469.105469 311.492188 C 466.191406 320.40625 462.667969 329.128906 458.476562 337.527344 L 458.117188 338.242188 L 457.425781 337.847656 C 457.050781 337.632812 456.671875 337.425781 456.296875 337.214844 C 451.738281 334.621094 447.136719 332.101562 442.535156 329.5625 C 437.539062 326.847656 432.585938 324.042969 427.695312 321.121094 C 427.613281 321.078125 427.570312 321 427.558594 320.917969 C 427.539062 320.851562 427.542969 320.769531 427.589844 320.699219 C 427.671875 320.5625 427.851562 320.511719 427.996094 320.585938 C 432.988281 323.304688 438.074219 325.851562 443.113281 328.484375 C 447.921875 330.964844 452.730469 333.476562 457.453125 336.140625 C 461.351562 327.972656 464.800781 319.601562 467.679688 311.019531 C 469.15625 306.609375 470.546875 302.164062 471.753906 297.660156 C 472.964844 293.160156 474.105469 288.640625 475.039062 284.070312 C 475.085938 283.871094 475.273438 283.746094 475.472656 283.789062 C 475.667969 283.828125 475.792969 284.007812 475.757812 284.203125 Z M 328.21875 229.605469 C 328.132812 229.339844 328.042969 229.089844 327.957031 228.824219 C 327.90625 228.664062 327.996094 228.492188 328.15625 228.441406 C 328.308594 228.390625 328.472656 228.46875 328.535156 228.613281 C 328.667969 228.914062 328.792969 229.222656 328.925781 229.53125 C 330.3125 232.75 331.644531 236 332.953125 239.253906 C 334.386719 242.816406 335.738281 246.40625 337.140625 249.976562 L 341.121094 260.785156 C 341.652344 262.269531 342.175781 263.757812 342.695312 265.246094 C 343.4375 267.382812 344.175781 269.523438 344.867188 271.679688 C 344.929688 271.875 344.820312 272.074219 344.625 272.136719 C 344.449219 272.195312 344.257812 272.105469 344.1875 271.9375 C 343.21875 269.726562 342.300781 267.496094 341.390625 265.257812 C 340.855469 263.933594 340.320312 262.613281 339.785156 261.289062 L 335.632812 250.546875 C 334.316406 246.941406 332.960938 243.347656 331.679688 239.730469 C 330.488281 236.371094 329.320312 233.003906 328.21875 229.605469 Z M 405.027344 234.898438 C 404.921875 234.761719 404.941406 234.574219 405.070312 234.46875 C 405.199219 234.367188 405.375 234.378906 405.480469 234.484375 C 407.875 236.757812 411.425781 237.28125 414.570312 236.710938 C 417.78125 236.125 420.78125 234.605469 423.808594 233.074219 C 425.5625 232.238281 427.3125 231.390625 429.058594 230.546875 C 430.371094 229.917969 431.6875 229.289062 433.007812 228.675781 C 436.085938 227.242188 439.171875 225.828125 442.308594 224.503906 C 442.492188 224.429688 442.707031 224.515625 442.789062 224.699219 C 442.855469 224.875 442.789062 225.070312 442.628906 225.164062 C 439.664062 226.828125 436.644531 228.390625 433.628906 229.949219 C 431.574219 231.011719 429.5 232.042969 427.425781 233.074219 C 426.457031 233.550781 425.488281 234.027344 424.519531 234.515625 C 421.472656 235.949219 418.316406 237.574219 414.777344 238.046875 C 413.011719 238.28125 411.199219 238.199219 409.484375 237.707031 C 407.78125 237.199219 406.152344 236.28125 405.027344 234.898438 Z M 381.253906 260.121094 C 382.648438 256.898438 384.203125 253.738281 385.988281 250.710938 C 387.78125 247.6875 389.753906 244.78125 391.964844 242.0625 C 392.089844 241.902344 392.316406 241.886719 392.476562 242.003906 C 392.621094 242.128906 392.652344 242.335938 392.550781 242.488281 C 390.664062 245.410156 388.867188 248.367188 387.226562 251.414062 C 385.585938 254.453125 384.050781 257.550781 382.730469 260.75 C 381.605469 263.300781 380.652344 265.917969 379.757812 268.5625 C 379.546875 269.191406 379.3125 269.820312 379.109375 270.453125 C 378.289062 273.003906 377.589844 275.59375 376.9375 278.199219 C 376.898438 278.367188 376.847656 278.539062 376.8125 278.703125 C 376.667969 279.296875 376.503906 279.886719 376.363281 280.484375 C 376.320312 280.648438 376.15625 280.75 375.992188 280.710938 C 375.835938 280.671875 375.734375 280.53125 375.753906 280.378906 C 375.828125 279.769531 375.917969 279.160156 376.011719 278.558594 C 376.433594 275.699219 377.042969 272.867188 377.804688 270.070312 C 378.722656 266.679688 379.914062 263.367188 381.253906 260.121094 Z M 399.175781 210.84375 C 399.226562 210.703125 399.371094 210.617188 399.515625 210.640625 C 400.390625 210.765625 401.269531 210.835938 402.148438 210.875 C 403.4375 210.929688 404.714844 210.890625 405.984375 210.734375 C 408.109375 210.472656 410.214844 209.96875 412.179688 209.140625 C 414.179688 208.375 416.054688 207.300781 417.769531 206.023438 C 419.492188 204.742188 421.03125 203.222656 422.378906 201.507812 C 422.503906 201.351562 422.730469 201.320312 422.894531 201.445312 C 423.03125 201.558594 423.070312 201.753906 422.988281 201.910156 C 421.910156 203.902344 420.402344 205.660156 418.65625 207.136719 C 416.902344 208.613281 414.890625 209.761719 412.777344 210.632812 C 410.636719 211.433594 408.382812 211.980469 406.097656 212.09375 C 405.683594 212.109375 405.261719 212.105469 404.847656 212.105469 C 402.980469 212.085938 401.125 211.820312 399.371094 211.238281 C 399.207031 211.179688 399.121094 211.003906 399.175781 210.84375 Z M 381.34375 169.164062 C 382.375 168.183594 383.964844 167.921875 385.351562 168.234375 C 386.042969 168.402344 386.722656 168.691406 387.28125 169.152344 C 387.84375 169.597656 388.320312 170.164062 388.558594 170.828125 C 388.628906 171.023438 388.527344 171.242188 388.332031 171.3125 C 388.207031 171.355469 388.082031 171.332031 387.980469 171.261719 L 387.960938 171.25 C 387.472656 170.890625 387.011719 170.582031 386.511719 170.34375 C 386.011719 170.117188 385.511719 169.917969 384.976562 169.796875 C 384.453125 169.660156 383.914062 169.597656 383.359375 169.566406 C 382.800781 169.546875 382.242188 169.605469 381.632812 169.703125 L 381.613281 169.703125 C 381.441406 169.734375 381.28125 169.617188 381.25 169.441406 C 381.230469 169.332031 381.273438 169.226562 381.34375 169.164062 Z M 394.007812 196.558594 C 392.863281 196.550781 391.671875 196.199219 390.835938 195.425781 C 390.707031 195.308594 390.703125 195.105469 390.816406 194.980469 C 390.910156 194.886719 391.042969 194.863281 391.15625 194.898438 L 391.167969 194.90625 C 392.992188 195.601562 394.933594 195.1875 396.554688 194.316406 C 396.761719 194.203125 396.964844 194.050781 397.171875 193.917969 C 397.769531 193.542969 398.347656 193.117188 398.925781 192.644531 C 399 192.582031 399.082031 192.511719 399.15625 192.441406 C 399.84375 191.867188 400.519531 191.238281 401.261719 190.652344 C 401.425781 190.527344 401.652344 190.550781 401.777344 190.714844 C 401.878906 190.839844 401.886719 191.003906 401.808594 191.136719 C 401.269531 192.035156 400.632812 192.882812 399.90625 193.675781 C 399.183594 194.480469 398.308594 195.1875 397.316406 195.730469 C 396.296875 196.257812 395.164062 196.578125 394.007812 196.558594 Z M 388.167969 163.070312 C 388.519531 163.609375 388.792969 164.207031 388.878906 164.847656 C 388.90625 165.0625 388.761719 165.25 388.550781 165.277344 C 388.425781 165.292969 388.308594 165.25 388.226562 165.164062 L 388.21875 165.148438 C 387.816406 164.734375 387.457031 164.339844 387.070312 163.976562 C 386.679688 163.625 386.296875 163.265625 385.875 162.964844 C 385.472656 162.636719 385.027344 162.359375 384.578125 162.070312 C 384.128906 161.789062 383.636719 161.550781 383.121094 161.28125 L 383.109375 161.273438 C 382.953125 161.1875 382.894531 160.992188 382.976562 160.835938 C 383.027344 160.746094 383.117188 160.683594 383.210938 160.671875 C 383.84375 160.566406 384.492188 160.644531 385.109375 160.820312 C 385.738281 160.984375 386.316406 161.300781 386.835938 161.675781 C 387.359375 162.066406 387.824219 162.523438 388.167969 163.070312 Z M 408.382812 162.996094 C 407.597656 162.296875 406.746094 161.6875 405.808594 161.238281 C 404.882812 160.773438 403.878906 160.476562 402.835938 160.28125 C 401.789062 160.105469 400.714844 160.082031 399.609375 160.167969 C 399.433594 160.179688 399.28125 160.054688 399.269531 159.886719 C 399.257812 159.753906 399.332031 159.628906 399.453125 159.570312 C 400.539062 159.089844 401.753906 158.894531 402.964844 158.929688 C 404.1875 158.960938 405.394531 159.269531 406.511719 159.792969 C 407.617188 160.332031 408.625 161.078125 409.410156 162.007812 C 410.203125 162.933594 410.816406 164 411.117188 165.164062 C 411.167969 165.355469 411.050781 165.558594 410.855469 165.609375 C 410.699219 165.652344 410.535156 165.582031 410.453125 165.457031 C 409.835938 164.539062 409.164062 163.707031 408.382812 162.996094 Z M 386.835938 180.085938 C 386.1875 181.511719 385.867188 183.082031 386.1875 184.527344 C 386.515625 185.910156 387.652344 187.253906 389.179688 187.5 L 389.195312 187.507812 C 389.363281 187.53125 389.476562 187.6875 389.453125 187.859375 C 389.425781 188.003906 389.308594 188.101562 389.167969 188.117188 C 387.21875 188.246094 385.492188 186.734375 384.886719 184.90625 C 384.257812 183.050781 384.65625 181.085938 385.367188 179.441406 C 386.109375 177.78125 387.136719 176.382812 388.074219 175.011719 C 389.003906 173.644531 389.835938 172.242188 390.242188 170.671875 C 390.292969 170.476562 390.488281 170.351562 390.683594 170.402344 C 390.851562 170.4375 390.972656 170.601562 390.964844 170.765625 C 390.917969 172.582031 390.128906 174.265625 389.289062 175.757812 C 388.441406 177.265625 387.472656 178.636719 386.835938 180.085938 Z M 508.074219 759.394531 C 507.714844 761.167969 506.652344 761.363281 505.703125 759.824219 C 504.753906 758.289062 504.269531 755.609375 504.628906 753.832031 C 504.988281 752.066406 506.050781 751.871094 507.003906 753.410156 C 507.953125 754.941406 508.4375 757.625 508.074219 759.394531 Z M 508.269531 748.875 L 487.140625 748.875 C 487.140625 748.875 485.839844 756.75 480.660156 760.757812 C 475.832031 764.503906 475.675781 775.453125 475.675781 775.453125 L 512.871094 775.453125 Z M 264.28125 306.101562 C 252.375 302.671875 246.625 287.828125 253.863281 287.828125 C 259.917969 287.828125 262.128906 291.445312 262.128906 291.445312 C 262.128906 291.445312 264.386719 287.828125 268.980469 287.828125 C 276.230469 287.828125 275.117188 302.671875 264.28125 306.101562 Z M 303.234375 338.199219 C 302.773438 335.984375 307.929688 336.089844 317.867188 336.089844 C 327.8125 336.089844 337.472656 345.902344 337.472656 345.902344 C 337.472656 345.902344 360.5625 342.828125 381.933594 339.425781 C 389.726562 338.1875 397.285156 336.90625 403.417969 335.707031 C 403.632812 334.777344 403.753906 333.816406 403.753906 332.824219 L 341.714844 332.824219 L 330.953125 265.390625 L 329.734375 257.734375 C 328.84375 252.144531 324.015625 248.027344 318.351562 248.027344 L 215.890625 248.027344 C 208.800781 248.027344 203.394531 254.359375 204.515625 261.359375 L 216.449219 336.195312 C 217.34375 341.785156 222.171875 345.902344 227.835938 345.902344 L 279.214844 345.902344 L 317.589844 345.6875 C 317.589844 345.6875 303.691406 340.417969 303.234375 338.199219 Z M 344.015625 762.742188 C 341.640625 762.742188 339.875 760.820312 340.070312 758.449219 C 340.265625 756.074219 342.34375 754.152344 344.722656 754.152344 C 347.097656 754.152344 348.871094 756.074219 348.667969 758.449219 C 348.472656 760.820312 346.394531 762.742188 344.015625 762.742188 Z M 337.65625 748.875 L 337.707031 748.875 C 337.707031 748.875 334.707031 757.222656 318.9375 759.3125 C 304.152344 761.273438 294.089844 775.453125 294.089844 775.453125 L 352.972656 775.453125 L 358.832031 748.875 L 358.78125 748.875 C 358.78125 748.875 390.371094 690.027344 395.917969 641.9375 C 401.46875 593.839844 398.847656 572.539062 412.132812 545.539062 C 415.941406 537.796875 421.339844 528.953125 427.15625 519.460938 L 387.640625 368.359375 Z M 424.539062 155.933594 C 424.5 156.363281 424.464844 156.800781 424.433594 157.234375 C 424.210938 156.300781 423.746094 155.375 423.214844 154.578125 C 423.601562 155.074219 424.050781 155.527344 424.539062 155.933594 Z M 367.488281 192.5625 C 368.167969 192.234375 368.550781 191.527344 368.898438 190.855469 C 370.058594 188.582031 371.222656 186.300781 372.386719 184.027344 C 372.019531 188.835938 374.339844 193.769531 378.289062 196.558594 C 379.210938 197.210938 380.332031 197.746094 381.4375 197.882812 C 376.601562 183.675781 380.859375 156.890625 381.316406 146.714844 C 381.410156 144.535156 381.8125 142.375 382.480469 140.304688 C 383.71875 139.226562 385.253906 138.460938 386.804688 138.175781 C 384.917969 142.871094 386.71875 148.339844 389.773438 152.375 C 390.695312 153.59375 391.785156 154.765625 393.199219 155.355469 C 394.613281 155.949219 396.421875 155.808594 397.460938 154.679688 C 397.484375 154.652344 397.496094 154.621094 397.523438 154.589844 C 398.007812 154.007812 398.183594 153.191406 398.050781 152.449219 C 399.402344 154.011719 401.128906 155.25 403.0625 155.996094 C 404.015625 156.363281 405.089844 156.613281 406.066406 156.273438 C 407.222656 155.871094 407.96875 154.683594 408.203125 153.480469 C 408.429688 152.273438 408.234375 151.027344 408.039062 149.8125 C 410.257812 153.832031 413.488281 157.292969 417.355469 159.765625 C 418.566406 160.546875 419.90625 161.242188 421.347656 161.242188 C 422.523438 161.238281 423.734375 160.613281 424.277344 159.617188 C 424.167969 161.640625 424.132812 163.667969 424.15625 165.691406 C 425.273438 164.058594 426.496094 162.4375 428.25 161.53125 C 430.164062 160.546875 432.894531 160.777344 434.03125 162.613281 C 434.90625 164.027344 434.578125 165.847656 434.113281 167.441406 C 433.308594 170.207031 432.113281 172.945312 430.082031 174.988281 C 428.71875 176.363281 426.910156 177.363281 425.015625 177.6875 C 425.804688 183.597656 427.128906 189.433594 428.988281 195.101562 C 430.78125 200.578125 433.171875 206.042969 437.289062 210.074219 C 437.589844 210.363281 437.921875 210.648438 438.269531 210.898438 C 439.054688 211.457031 439.941406 211.828125 440.839844 211.601562 C 442.523438 211.1875 443.082031 209.046875 442.914062 207.316406 C 442.742188 205.597656 442.179688 203.789062 442.832031 202.1875 C 445.074219 203.304688 445.925781 206.601562 448.386719 207.027344 C 450.363281 207.375 452.148438 205.464844 452.425781 203.480469 C 452.699219 201.5 451.921875 199.546875 451.148438 197.699219 C 454 198.65625 456.929688 199.625 459.933594 199.554688 C 462.945312 199.484375 466.109375 198.164062 467.574219 195.535156 C 469.507812 192.054688 467.9375 187.738281 466.339844 184.089844 C 469.320312 185.777344 473.335938 185.402344 475.945312 183.183594 C 478.5625 180.96875 479.585938 177.066406 478.402344 173.855469 C 478.140625 173.144531 477.769531 172.40625 477.917969 171.65625 C 478.121094 170.710938 479.0625 170.148438 479.804688 169.527344 C 482.613281 167.179688 483.074219 162.78125 481.535156 159.453125 C 480 156.128906 476.863281 153.78125 473.511719 152.292969 C 470.167969 150.796875 466.554688 150.03125 463.039062 148.988281 C 459.527344 147.933594 456.011719 146.542969 453.328125 144.042969 C 452.246094 143.046875 451.324219 141.882812 450.386719 140.726562 C 448.589844 135.496094 444.492188 131.015625 439.28125 129.070312 C 440.902344 129.09375 444.6875 129.917969 446.0625 129.070312 C 447.4375 128.214844 448.320312 126.363281 447.578125 124.921875 C 446.988281 123.773438 445.628906 123.269531 444.371094 122.9375 C 440.902344 122.035156 437.320312 121.425781 433.75 121.585938 C 434.628906 121.25 435.371094 120.46875 435.640625 119.546875 C 436.066406 118.121094 435.535156 116.53125 434.570312 115.386719 C 432.472656 112.886719 428.796875 112.421875 425.539062 112.71875 C 422.546875 112.988281 419.773438 113.785156 417.023438 114.992188 C 418.203125 113.773438 417.8125 111.605469 416.59375 110.429688 C 415.375 109.246094 413.601562 108.847656 411.910156 108.699219 C 408.679688 108.421875 405.328125 108.925781 402.515625 110.519531 C 399.691406 112.109375 397.679688 114.359375 397.089844 117.535156 C 396.417969 116.25 395.726562 114.941406 394.699219 113.910156 C 393.675781 112.882812 392.253906 112.144531 390.808594 112.304688 C 389.476562 112.441406 388.332031 113.296875 387.402344 114.261719 C 386.316406 115.394531 385.410156 116.78125 385.234375 118.347656 C 384.949219 120.945312 386.976562 123.671875 388.640625 125.695312 C 383.585938 126.027344 378.4375 126.378906 373.722656 128.226562 C 373.140625 128.460938 372.546875 128.71875 372.097656 129.15625 C 371.644531 129.589844 371.347656 130.238281 371.488281 130.847656 C 371.632812 131.480469 372.179688 131.925781 372.71875 132.285156 C 374.78125 133.648438 377.25 134.121094 379.726562 134.054688 C 375.835938 137.359375 372.710938 141.734375 370.410156 146.148438 C 366.773438 153.144531 364.828125 160.890625 363.207031 168.609375 C 361.699219 175.796875 360.511719 183.625 363.75 190.226562 C 364.464844 191.695312 366.011719 193.265625 367.488281 192.5625"/></g></svg>