<svg xmlns="http://www.w3.org/2000/svg" width="810" viewBox="0 0 810 810" height="810" version="1.0"><defs><clipPath id="a"><path d="M 24.703125 86.742188 L 754.667969 86.742188 L 754.667969 744.539062 L 24.703125 744.539062 Z M 24.703125 86.742188"/></clipPath><clipPath id="b"><path d="M 79 336.1875 L 770.433594 336.1875 L 770.433594 715 L 79 715 Z M 79 336.1875"/></clipPath></defs><path fill="#8B73FF" d="M 619.015625 661.183594 L 630.839844 714.105469 L 580.960938 714.105469 L 576.453125 693.894531 C 522.527344 726.570312 448.675781 743.207031 347.644531 733.214844 C 182.550781 716.875 68.375 610.855469 68.375 444.914062 C 68.375 278.972656 216.441406 65.53125 382.339844 65.53125 C 548.246094 65.53125 719.617188 170.226562 719.617188 336.167969 C 719.617188 437.910156 706.804688 576.714844 619.015625 661.183594"/><g clip-path="url(#a)"><path fill="#F08990" d="M 147.898438 403.398438 C 147.925781 404.167969 147.980469 404.941406 148.082031 405.703125 C 148.449219 409.015625 149.480469 412.234375 150.96875 415.21875 C 152.011719 417.28125 153.304688 419.21875 154.800781 421 C 155.402344 419.042969 156.003906 417.109375 156.582031 415.222656 C 152.714844 412.132812 149.726562 407.992188 147.898438 403.398438 Z M 240.238281 433.660156 C 240.050781 434.789062 239.800781 435.917969 239.519531 437.039062 C 240.539062 435.382812 241.378906 433.609375 241.996094 431.761719 C 244.203125 425.078125 244.046875 417.859375 243.871094 410.730469 C 243.765625 403.570312 243.804688 396.386719 244.15625 389.222656 C 244.394531 384.195312 244.769531 379.179688 245.269531 374.171875 C 244.816406 374.089844 244.355469 374.007812 243.902344 373.90625 C 239.652344 383.03125 239.488281 393.492188 240.078125 403.539062 C 240.667969 413.589844 241.921875 423.738281 240.238281 433.660156 Z M 246.148438 374.320312 C 245.929688 377.925781 245.757812 381.539062 245.613281 385.144531 C 245.917969 381.523438 246.339844 377.925781 246.886719 374.398438 C 246.640625 374.371094 246.394531 374.355469 246.148438 374.320312 Z M 305.121094 306.832031 C 303.308594 309.628906 301.625 312.554688 300.3125 315.597656 C 313.78125 315.269531 330.277344 319.0625 350.367188 328.320312 C 350.074219 324.808594 350.070312 321.257812 350.074219 317.734375 C 350.085938 315.246094 350 312.582031 349.542969 310.085938 C 348.855469 309.695312 348.148438 309.335938 347.421875 309.054688 C 346.378906 308.65625 345.308594 308.339844 344.210938 308.164062 C 343.117188 307.964844 342.003906 307.902344 340.886719 307.929688 C 339.761719 307.964844 338.644531 308.140625 337.515625 308.394531 C 337.351562 308.433594 337.191406 308.332031 337.152344 308.175781 C 337.125 308.042969 337.1875 307.917969 337.289062 307.851562 C 338.339844 307.21875 339.535156 306.835938 340.753906 306.636719 C 341.980469 306.425781 343.238281 306.457031 344.460938 306.648438 C 345.6875 306.855469 346.898438 307.230469 347.984375 307.816406 C 348.417969 308.042969 348.824219 308.3125 349.21875 308.59375 C 348.878906 307.3125 348.425781 306.101562 347.800781 304.992188 C 347.574219 304.941406 347.335938 304.882812 347.113281 304.84375 C 346.386719 304.714844 345.667969 304.601562 344.9375 304.5625 C 344.210938 304.5 343.484375 304.511719 342.746094 304.535156 C 342.007812 304.566406 341.269531 304.664062 340.496094 304.761719 C 340.332031 304.777344 340.175781 304.664062 340.160156 304.5 C 340.140625 304.378906 340.203125 304.273438 340.289062 304.207031 C 340.972656 303.746094 341.75 303.445312 342.5625 303.253906 C 343.363281 303.050781 344.207031 302.992188 345.035156 303.03125 C 345.570312 303.066406 346.097656 303.164062 346.613281 303.289062 C 346.257812 302.871094 345.859375 302.484375 345.429688 302.125 C 344.355469 301.992188 343.285156 301.960938 342.242188 302.101562 C 341.136719 302.25 340.058594 302.515625 339.035156 302.9375 C 338.003906 303.347656 337.042969 303.914062 336.144531 304.574219 C 335.25 305.246094 334.457031 306.054688 333.75 306.972656 C 333.648438 307.105469 333.460938 307.132812 333.332031 307.035156 C 333.222656 306.957031 333.1875 306.816406 333.234375 306.691406 C 334.09375 304.34375 336.128906 302.488281 338.449219 301.523438 C 339.625 301.042969 340.878906 300.746094 342.148438 300.742188 C 342.46875 300.734375 342.789062 300.746094 343.109375 300.773438 C 338.214844 299.007812 331.226562 301.960938 329.832031 306.96875 C 329.429688 302.523438 325.898438 298.691406 321.664062 297.472656 C 322.011719 297.746094 322.363281 298.019531 322.691406 298.328125 C 323.636719 299.265625 324.449219 300.328125 325.050781 301.507812 C 325.660156 302.683594 326.082031 303.949219 326.214844 305.246094 C 326.226562 305.40625 326.113281 305.554688 325.945312 305.570312 C 325.8125 305.578125 325.695312 305.503906 325.644531 305.390625 C 325.164062 304.242188 324.605469 303.164062 323.933594 302.167969 C 323.25 301.179688 322.492188 300.25 321.625 299.429688 C 320.769531 298.601562 319.816406 297.878906 318.800781 297.234375 C 318.707031 297.175781 318.605469 297.128906 318.507812 297.074219 C 318.355469 297.078125 318.207031 297.074219 318.058594 297.082031 C 316.742188 297.195312 315.5 297.539062 314.324219 298.054688 C 315.15625 298.125 315.984375 298.289062 316.78125 298.535156 C 319.339844 299.351562 321.679688 301.113281 322.859375 303.503906 C 322.929688 303.648438 322.871094 303.828125 322.726562 303.898438 C 322.609375 303.960938 322.460938 303.925781 322.375 303.832031 C 321.527344 302.917969 320.601562 302.125 319.582031 301.488281 C 318.554688 300.859375 317.464844 300.34375 316.320312 300 C 315.1875 299.636719 313.996094 299.445312 312.804688 299.386719 C 312.503906 299.371094 312.210938 299.402344 311.910156 299.417969 C 311.140625 299.945312 310.402344 300.535156 309.707031 301.191406 C 310.125 301.15625 310.550781 301.144531 310.964844 301.148438 C 311.765625 301.1875 312.566406 301.277344 313.339844 301.492188 C 314.113281 301.691406 314.871094 301.96875 315.566406 302.382812 C 315.703125 302.46875 315.75 302.652344 315.667969 302.796875 C 315.605469 302.898438 315.5 302.949219 315.386719 302.9375 L 313.132812 302.769531 C 312.390625 302.734375 311.664062 302.6875 310.933594 302.6875 C 310.199219 302.671875 309.46875 302.691406 308.726562 302.707031 L 308.210938 302.730469 C 307.066406 304.015625 306.035156 305.414062 305.121094 306.832031 Z M 145.953125 395.316406 C 145.289062 387.613281 147.914062 379.683594 153.042969 373.894531 C 158.410156 367.832031 166.445312 363.882812 169.714844 356.46875 C 173.386719 348.148438 169.765625 338.648438 168.6875 329.617188 C 168.414062 327.3125 168.335938 324.988281 168.425781 322.679688 C 168.125 324.179688 167.921875 325.707031 167.839844 327.25 C 167.40625 332.972656 168.117188 338.855469 167.238281 344.765625 C 166.789062 347.703125 165.929688 350.605469 164.488281 353.230469 C 163.035156 355.839844 160.921875 358.152344 158.253906 359.515625 C 158.109375 359.589844 157.925781 359.53125 157.855469 359.386719 C 157.78125 359.25 157.839844 359.074219 157.972656 359 C 160.449219 357.5625 162.324219 355.285156 163.570312 352.746094 C 164.851562 350.210938 165.601562 347.417969 165.953125 344.585938 C 166.648438 338.898438 165.953125 333.066406 166.308594 327.148438 C 166.574219 322.953125 167.625 318.785156 169.414062 314.964844 C 172.167969 301.859375 180.421875 289.84375 192.082031 283.1875 C 204.597656 276.039062 220.597656 273.714844 230.09375 262.878906 C 243.398438 247.699219 264.222656 239.460938 284.304688 241.425781 C 296.207031 242.589844 307.648438 247.335938 317.113281 254.628906 C 335.664062 243.285156 360.726562 257.066406 372.121094 270.511719 C 384.394531 284.984375 386.78125 307.070312 377.871094 323.828125 C 375.28125 328.710938 371.773438 333.332031 370.992188 338.796875 C 370.203125 344.269531 374.070312 349.917969 379.59375 349.8125 C 375.199219 354.277344 367.628906 354.523438 362.195312 351.40625 C 359.933594 350.109375 358.03125 348.320312 356.4375 346.261719 C 355.941406 368.914062 356.894531 411.90625 369.898438 432.964844 C 388.042969 462.347656 368.152344 505.113281 368.152344 505.113281 C 368.152344 505.113281 271.785156 503.542969 256.007812 468.601562 C 251.628906 458.894531 246.976562 438.722656 245.464844 416.132812 C 245.449219 421.527344 245.101562 426.984375 243.285156 432.203125 C 242.210938 435.199219 240.59375 438 238.511719 440.40625 C 235.953125 447.84375 231.261719 454.550781 224.296875 457.96875 C 217.007812 461.539062 208.402344 461.035156 200.429688 459.523438 C 192.460938 458.011719 184.546875 456.238281 176.472656 455.476562 C 167.839844 454.660156 161.199219 454.601562 152.292969 458.996094 C 150.074219 454.710938 149.601562 449.519531 150.277344 440.992188 C 150.777344 434.753906 152.59375 428.230469 154.5 421.972656 C 152.664062 420.167969 151.089844 418.089844 149.828125 415.824219 C 148.117188 412.773438 147.027344 409.375 146.554688 405.894531 C 146.304688 403.675781 146.339844 401.4375 146.605469 399.230469 C 146.304688 397.945312 146.066406 396.640625 145.953125 395.316406 Z M 654.835938 184.941406 L 654.835938 189.550781 L 674.035156 189.550781 L 674.035156 184.941406 Z M 654.835938 224.296875 L 680.445312 224.296875 L 680.445312 219.683594 L 654.835938 219.683594 Z M 674.441406 218.792969 L 692.917969 218.792969 L 692.917969 214.179688 L 674.441406 214.179688 Z M 654.835938 218.792969 L 674.035156 218.792969 L 674.035156 214.179688 L 654.835938 214.179688 Z M 654.835938 213.300781 L 689.417969 213.300781 L 689.417969 208.6875 L 654.835938 208.6875 Z M 654.835938 206.046875 L 680.445312 206.046875 L 680.445312 201.433594 L 654.835938 201.433594 Z M 697.117188 195.941406 L 674.441406 195.941406 L 674.441406 200.554688 L 697.117188 200.554688 Z M 654.835938 200.554688 L 674.035156 200.554688 L 674.035156 195.941406 L 654.835938 195.941406 Z M 654.835938 195.050781 L 689.417969 195.050781 L 689.417969 190.4375 L 654.835938 190.4375 Z M 605.546875 181.542969 L 643.625 181.542969 L 643.625 176.929688 L 605.546875 176.929688 Z M 640.128906 136.34375 L 605.546875 136.34375 L 605.546875 140.957031 L 640.128906 140.957031 Z M 605.546875 176.234375 L 631.152344 176.234375 L 631.152344 171.621094 L 605.546875 171.621094 Z M 643.625 166.125 L 625.144531 166.125 L 625.144531 170.734375 L 643.625 170.734375 Z M 605.546875 170.734375 L 624.738281 170.734375 L 624.738281 166.125 L 605.546875 166.125 Z M 605.546875 165.234375 L 640.128906 165.234375 L 640.128906 160.621094 L 605.546875 160.621094 Z M 605.546875 157.988281 L 631.152344 157.988281 L 631.152344 153.375 L 605.546875 153.375 Z M 647.824219 147.875 L 625.144531 147.875 L 625.144531 152.484375 L 647.824219 152.484375 Z M 605.546875 152.484375 L 624.738281 152.484375 L 624.738281 147.875 L 605.546875 147.875 Z M 605.546875 146.992188 L 640.128906 146.992188 L 640.128906 142.378906 L 605.546875 142.378906 Z M 690.464844 129.742188 L 655.878906 129.742188 L 655.878906 134.351562 L 690.464844 134.351562 Z M 681.492188 124.289062 L 655.878906 124.289062 L 655.878906 128.902344 L 681.492188 128.902344 Z M 675.480469 123.398438 L 693.964844 123.398438 L 693.964844 118.789062 L 675.480469 118.789062 Z M 675.074219 118.789062 L 655.878906 118.789062 L 655.878906 123.398438 L 675.074219 123.398438 Z M 690.464844 113.292969 L 655.878906 113.292969 L 655.878906 117.90625 L 690.464844 117.90625 Z M 681.492188 106.042969 L 655.878906 106.042969 L 655.878906 110.652344 L 681.492188 110.652344 Z M 675.480469 105.15625 L 698.160156 105.15625 L 698.160156 100.542969 L 675.480469 100.542969 Z M 675.074219 100.542969 L 655.878906 100.542969 L 655.878906 105.15625 L 675.074219 105.15625 Z M 690.464844 95.050781 L 655.878906 95.050781 L 655.878906 99.660156 L 690.464844 99.660156 Z M 695.363281 140.957031 L 658.679688 140.957031 L 658.679688 177.652344 L 695.363281 177.652344 Z M 699.972656 182.265625 L 654.066406 182.265625 L 654.066406 136.34375 L 699.972656 136.34375 Z M 646.066406 189.550781 L 609.386719 189.550781 L 609.386719 218.957031 L 646.066406 218.957031 Z M 650.675781 223.566406 L 604.777344 223.566406 L 604.777344 184.941406 L 650.675781 184.941406 Z M 646.066406 99.660156 L 609.386719 99.660156 L 609.386719 129.742188 L 646.066406 129.742188 Z M 650.675781 134.351562 L 604.777344 134.351562 L 604.777344 95.050781 L 650.675781 95.050781 Z M 685.335938 359.539062 L 659.726562 359.539062 L 659.726562 364.148438 L 685.335938 364.148438 Z M 702.007812 354.039062 L 679.328125 354.039062 L 679.328125 358.652344 L 702.007812 358.652344 Z M 659.726562 358.652344 L 678.921875 358.652344 L 678.921875 354.039062 L 659.726562 354.039062 Z M 694.3125 348.546875 L 659.726562 348.546875 L 659.726562 353.152344 L 694.3125 353.152344 Z M 659.726562 331.542969 L 685.335938 331.542969 L 685.335938 326.933594 L 659.726562 326.933594 Z M 702.007812 321.433594 L 679.328125 321.433594 L 679.328125 326.046875 L 702.007812 326.046875 Z M 659.726562 326.046875 L 678.921875 326.046875 L 678.921875 321.433594 L 659.726562 321.433594 Z M 694.3125 315.933594 L 659.726562 315.933594 L 659.726562 320.542969 L 694.3125 320.542969 Z M 659.726562 298.9375 L 685.335938 298.9375 L 685.335938 294.324219 L 659.726562 294.324219 Z M 702.007812 288.832031 L 679.328125 288.832031 L 679.328125 293.441406 L 702.007812 293.441406 Z M 659.726562 293.441406 L 678.921875 293.441406 L 678.921875 288.832031 L 659.726562 288.832031 Z M 694.3125 283.328125 L 659.726562 283.328125 L 659.726562 287.941406 L 694.3125 287.941406 Z M 630.773438 365.039062 L 648.148438 365.039062 L 648.148438 347.65625 L 630.773438 347.65625 Z M 626.167969 343.042969 L 652.757812 343.042969 L 652.757812 369.648438 L 626.167969 369.648438 Z M 648.148438 315.050781 L 630.773438 315.050781 L 630.773438 332.425781 L 648.148438 332.425781 Z M 652.757812 337.039062 L 626.167969 337.039062 L 626.167969 310.4375 L 652.757812 310.4375 Z M 648.148438 282.445312 L 630.773438 282.445312 L 630.773438 299.820312 L 648.148438 299.820312 Z M 652.757812 304.433594 L 626.167969 304.433594 L 626.167969 277.835938 L 652.757812 277.835938 Z M 601.746094 359.539062 L 576.140625 359.539062 L 576.140625 364.148438 L 601.746094 364.148438 Z M 595.742188 358.652344 L 618.421875 358.652344 L 618.421875 354.039062 L 595.742188 354.039062 Z M 595.335938 354.039062 L 576.140625 354.039062 L 576.140625 358.652344 L 595.335938 358.652344 Z M 610.726562 348.546875 L 576.140625 348.546875 L 576.140625 353.152344 L 610.726562 353.152344 Z M 601.746094 294.324219 L 576.140625 294.324219 L 576.140625 298.9375 L 601.746094 298.9375 Z M 595.742188 293.441406 L 618.421875 293.441406 L 618.421875 288.832031 L 595.742188 288.832031 Z M 595.335938 288.832031 L 576.140625 288.832031 L 576.140625 293.441406 L 595.335938 293.441406 Z M 610.726562 283.328125 L 576.140625 283.328125 L 576.140625 287.941406 L 610.726562 287.941406 Z M 547.1875 365.039062 L 564.566406 365.039062 L 564.566406 347.65625 L 547.1875 347.65625 Z M 542.582031 343.042969 L 569.171875 343.042969 L 569.171875 369.648438 L 542.582031 369.648438 Z M 564.566406 282.445312 L 547.1875 282.445312 L 547.1875 299.820312 L 564.566406 299.820312 Z M 569.171875 304.433594 L 542.582031 304.433594 L 542.582031 277.835938 L 569.171875 277.835938 Z M 560.929688 86.757812 L 447.007812 86.757812 L 447.007812 231.863281 L 560.929688 231.863281 Z M 754.667969 722.851562 C 754.667969 734.832031 591.257812 744.539062 389.6875 744.539062 C 188.109375 744.539062 24.703125 734.832031 24.703125 722.851562 C 24.703125 712.359375 150.085938 703.601562 316.667969 701.59375 L 278.871094 607.636719 C 278.078125 605.632812 279.054688 603.371094 281.050781 602.578125 C 283.054688 601.785156 285.316406 602.765625 286.109375 604.765625 L 325.027344 701.496094 C 346.015625 701.273438 367.617188 701.160156 389.6875 701.160156 C 458.902344 701.160156 523.621094 702.304688 578.769531 704.292969 L 580.960938 714.105469 L 630.839844 714.105469 L 629.140625 706.480469 C 706.039062 710.453125 754.667969 716.3125 754.667969 722.851562"/></g><path fill="#FFF" d="M 462.175781 217.511719 L 521.078125 217.511719 L 521.078125 215.972656 L 462.175781 215.972656 Z M 545.761719 206.597656 L 462.175781 206.597656 L 462.175781 208.136719 L 545.761719 208.136719 Z M 545.761719 197.21875 L 462.175781 197.21875 L 462.175781 198.757812 L 545.761719 198.757812 Z M 545.761719 187.847656 L 462.175781 187.847656 L 462.175781 189.386719 L 545.761719 189.386719 Z M 545.761719 178.46875 L 462.175781 178.46875 L 462.175781 180.007812 L 545.761719 180.007812 Z M 545.761719 169.089844 L 462.175781 169.089844 L 462.175781 170.625 L 545.761719 170.625 Z M 544.992188 105.558594 L 462.945312 105.558594 L 462.945312 158.539062 L 544.992188 158.539062 Z M 546.53125 160.078125 L 461.40625 160.078125 L 461.40625 104.019531 L 546.53125 104.019531 Z M 566.097656 280.910156 L 545.65625 280.910156 L 545.65625 301.359375 L 566.097656 301.359375 Z M 480.472656 318.785156 L 479.386719 317.699219 L 468.9375 328.152344 L 465.195312 324.40625 L 464.109375 325.492188 L 468.9375 330.328125 Z M 482.511719 333.964844 L 462.070312 333.964844 L 462.070312 313.511719 L 482.511719 313.511719 Z M 700.472656 290.367188 L 680.863281 290.367188 L 680.863281 291.902344 L 700.472656 291.902344 Z M 700.472656 322.96875 L 680.863281 322.96875 L 680.863281 324.507812 L 700.472656 324.507812 Z M 700.472656 355.574219 L 680.863281 355.574219 L 680.863281 357.113281 L 700.472656 357.113281 Z M 683.800781 361.074219 L 661.265625 361.074219 L 661.265625 362.609375 L 683.800781 362.609375 Z M 651.222656 279.371094 L 627.703125 279.371094 L 627.703125 302.898438 L 651.222656 302.898438 Z M 651.222656 311.976562 L 627.703125 311.976562 L 627.703125 335.503906 L 651.222656 335.503906 Z M 651.222656 344.582031 L 627.703125 344.582031 L 627.703125 368.113281 L 651.222656 368.113281 Z M 616.886719 290.367188 L 597.277344 290.367188 L 597.277344 291.902344 L 616.886719 291.902344 Z M 616.886719 322.96875 L 597.277344 322.96875 L 597.277344 324.507812 L 616.886719 324.507812 Z M 616.886719 355.574219 L 597.277344 355.574219 L 597.277344 357.113281 L 616.886719 357.113281 Z M 600.207031 361.074219 L 577.679688 361.074219 L 577.679688 362.609375 L 600.207031 362.609375 Z M 567.636719 279.371094 L 544.117188 279.371094 L 544.117188 302.898438 L 567.636719 302.898438 Z M 567.636719 311.976562 L 544.117188 311.976562 L 544.117188 335.503906 L 567.636719 335.503906 Z M 567.636719 344.582031 L 544.117188 344.582031 L 544.117188 368.113281 L 567.636719 368.113281 Z M 533.292969 290.367188 L 513.695312 290.367188 L 513.695312 291.902344 L 533.292969 291.902344 Z M 533.292969 322.96875 L 513.695312 322.96875 L 513.695312 324.507812 L 533.292969 324.507812 Z M 533.292969 355.574219 L 513.695312 355.574219 L 513.695312 357.113281 L 533.292969 357.113281 Z M 516.625 361.074219 L 494.085938 361.074219 L 494.085938 362.609375 L 516.625 362.609375 Z M 484.050781 279.371094 L 460.53125 279.371094 L 460.53125 302.898438 L 484.050781 302.898438 Z M 484.050781 311.976562 L 460.53125 311.976562 L 460.53125 335.503906 L 484.050781 335.503906 Z M 484.050781 344.582031 L 460.53125 344.582031 L 460.53125 368.113281 L 484.050781 368.113281 Z M 494.085938 357.113281 L 510.210938 357.113281 L 510.210938 355.574219 L 494.085938 355.574219 Z M 494.085938 351.617188 L 525.601562 351.617188 L 525.601562 350.078125 L 494.085938 350.078125 Z M 494.085938 330.003906 L 516.625 330.003906 L 516.625 328.472656 L 494.085938 328.472656 Z M 494.085938 324.507812 L 510.210938 324.507812 L 510.210938 322.96875 L 494.085938 322.96875 Z M 494.085938 319.007812 L 525.601562 319.007812 L 525.601562 317.472656 L 494.085938 317.472656 Z M 494.085938 297.398438 L 516.625 297.398438 L 516.625 295.863281 L 494.085938 295.863281 Z M 494.085938 291.902344 L 510.210938 291.902344 L 510.210938 290.367188 L 494.085938 290.367188 Z M 494.085938 286.40625 L 525.601562 286.40625 L 525.601562 284.867188 L 494.085938 284.867188 Z M 577.679688 357.113281 L 593.796875 357.113281 L 593.796875 355.574219 L 577.679688 355.574219 Z M 577.679688 351.617188 L 609.1875 351.617188 L 609.1875 350.078125 L 577.679688 350.078125 Z M 577.679688 330.003906 L 600.207031 330.003906 L 600.207031 328.472656 L 577.679688 328.472656 Z M 577.679688 324.507812 L 593.796875 324.507812 L 593.796875 322.96875 L 577.679688 322.96875 Z M 577.679688 319.007812 L 609.1875 319.007812 L 609.1875 317.472656 L 577.679688 317.472656 Z M 577.679688 297.398438 L 600.207031 297.398438 L 600.207031 295.863281 L 577.679688 295.863281 Z M 577.679688 291.902344 L 593.796875 291.902344 L 593.796875 290.367188 L 577.679688 290.367188 Z M 577.679688 286.40625 L 609.1875 286.40625 L 609.1875 284.867188 L 577.679688 284.867188 Z M 661.265625 357.113281 L 677.382812 357.113281 L 677.382812 355.574219 L 661.265625 355.574219 Z M 661.265625 351.617188 L 692.773438 351.617188 L 692.773438 350.078125 L 661.265625 350.078125 Z M 661.265625 330.003906 L 683.800781 330.003906 L 683.800781 328.472656 L 661.265625 328.472656 Z M 661.265625 324.507812 L 677.382812 324.507812 L 677.382812 322.96875 L 661.265625 322.96875 Z M 661.265625 319.007812 L 692.773438 319.007812 L 692.773438 317.472656 L 661.265625 317.472656 Z M 661.265625 297.398438 L 683.800781 297.398438 L 683.800781 295.863281 L 661.265625 295.863281 Z M 661.265625 291.902344 L 677.382812 291.902344 L 677.382812 290.367188 L 661.265625 290.367188 Z M 661.265625 286.40625 L 692.773438 286.40625 L 692.773438 284.867188 L 661.265625 284.867188 Z M 714.757812 382.9375 L 447.007812 382.9375 L 447.007812 260.210938 L 714.757812 260.210938 Z M 480.472656 351.390625 L 479.386719 350.304688 L 468.9375 360.757812 L 465.195312 357.015625 L 464.109375 358.105469 L 468.9375 362.933594 Z M 482.511719 366.574219 L 462.070312 366.574219 L 462.070312 346.117188 L 482.511719 346.117188 Z M 566.097656 346.117188 L 545.65625 346.117188 L 545.65625 366.574219 L 566.097656 366.574219 Z M 564.058594 318.785156 L 562.972656 317.699219 L 552.519531 328.152344 L 548.78125 324.40625 L 547.695312 325.492188 L 552.519531 330.328125 Z M 566.097656 333.964844 L 545.65625 333.964844 L 545.65625 313.511719 L 566.097656 313.511719 Z M 649.683594 346.117188 L 629.238281 346.117188 L 629.238281 366.574219 L 649.683594 366.574219 Z M 649.683594 313.511719 L 629.238281 313.511719 L 629.238281 333.964844 L 649.683594 333.964844 Z M 649.683594 280.910156 L 629.238281 280.910156 L 629.238281 301.359375 L 649.683594 301.359375 Z M 480.472656 286.179688 L 479.386719 285.097656 L 468.9375 295.539062 L 465.195312 291.800781 L 464.109375 292.886719 L 468.9375 297.714844 Z M 482.511719 301.359375 L 462.070312 301.359375 L 462.070312 280.910156 L 482.511719 280.910156 Z M 760.898438 407.59375 C 760.78125 407.511719 760.667969 407.4375 760.550781 407.355469 L 760.550781 407.351562 C 759.46875 406.609375 758.15625 406.15625 756.71875 406.15625 L 435.050781 406.15625 C 431.769531 406.15625 428.964844 408.5 428.382812 411.722656 L 384.660156 655.0625 C 384.164062 657.816406 385.40625 660.40625 387.519531 661.851562 L 393.992188 666.425781 L 398.988281 663.03125 L 569.550781 663.03125 L 558.914062 615.410156 L 608.785156 615.410156 L 619.425781 663.03125 L 712.992188 663.03125 C 716.265625 663.03125 719.074219 660.683594 719.652344 657.457031 L 763.15625 415.367188 L 767.59375 412.339844 Z M 321.78125 609.484375 C 322.34375 609.484375 322.871094 609.238281 323.226562 608.816406 C 323.988281 607.921875 324.683594 606.902344 325.410156 605.613281 C 325.980469 604.605469 326.507812 603.46875 327.019531 602.113281 C 327.519531 600.730469 327.851562 599.558594 328.066406 598.433594 C 328.351562 597.007812 328.496094 595.746094 328.503906 594.578125 C 328.507812 593.777344 328.003906 593.070312 327.238281 592.816406 L 326.910156 592.734375 L 326.671875 592.734375 C 325.875 592.734375 325.167969 593.242188 324.921875 594 L 323.855469 597.289062 L 323.621094 597.953125 C 323.324219 598.808594 323.035156 599.65625 322.695312 600.515625 C 322.375 601.378906 322.027344 602.230469 321.671875 603.082031 L 321.445312 603.640625 L 320.050781 606.859375 C 319.722656 607.628906 319.9375 608.503906 320.570312 609.039062 C 320.914062 609.328125 321.34375 609.484375 321.78125 609.484375 Z M 295.496094 628.097656 L 296.074219 627.265625 C 298.5625 623.652344 300.808594 620 302.753906 616.398438 C 305.769531 610.835938 308.445312 604.769531 310.726562 598.363281 C 312.957031 591.890625 314.648438 585.476562 315.746094 579.3125 C 316.914062 572.863281 317.546875 566.265625 317.625 559.714844 C 317.628906 558.734375 316.878906 557.929688 315.796875 557.863281 C 314.824219 557.863281 314.027344 558.613281 313.96875 559.574219 C 313.574219 565.828125 312.726562 572.195312 311.453125 578.488281 C 310.125 584.972656 308.421875 591.144531 306.375 596.851562 C 304.375 602.621094 301.839844 608.5 298.835938 614.324219 C 297.28125 617.316406 295.539062 620.398438 293.636719 623.480469 L 294.351562 625.25 C 294.492188 625.5625 294.808594 626.390625 294.808594 626.390625 C 295.257812 627.40625 295.496094 628.097656 295.496094 628.097656 Z M 183.394531 570.449219 C 183.101562 570.273438 182.78125 570.1875 182.445312 570.1875 C 181.804688 570.1875 181.207031 570.519531 180.875 571.066406 C 179.894531 572.699219 178.996094 574.351562 177.953125 576.316406 C 177.347656 577.457031 176.777344 578.605469 176.203125 579.765625 C 175.894531 580.386719 175.589844 581.003906 175.25 581.667969 L 174.46875 583.332031 C 173.886719 584.574219 173.304688 585.808594 172.753906 587.0625 C 171.992188 588.808594 171.179688 590.671875 170.457031 592.617188 C 170.144531 593.46875 170.480469 594.429688 171.253906 594.894531 C 171.546875 595.066406 171.886719 595.164062 172.226562 595.164062 C 172.886719 595.164062 173.503906 594.808594 173.839844 594.25 C 174.914062 592.457031 175.90625 590.59375 176.753906 588.976562 C 177.375 587.773438 177.984375 586.546875 178.582031 585.328125 L 179.425781 583.617188 C 179.710938 582.984375 180.007812 582.351562 180.296875 581.71875 C 180.839844 580.554688 181.382812 579.390625 181.890625 578.214844 C 182.78125 576.171875 183.507812 574.441406 184.164062 572.65625 C 184.464844 571.832031 184.144531 570.898438 183.394531 570.449219 Z M 189.097656 474.664062 C 185.890625 471.402344 182.238281 468.847656 178.246094 467.082031 L 177.832031 466.933594 L 177.507812 466.933594 C 176.8125 466.933594 176.164062 467.335938 175.863281 467.957031 C 175.648438 468.398438 175.621094 468.898438 175.777344 469.355469 C 175.941406 469.820312 176.273438 470.195312 176.710938 470.410156 C 183.382812 473.648438 189.089844 479.671875 192.761719 487.371094 C 196.171875 494.539062 197.863281 502.617188 197.648438 510.753906 C 197.507812 517.964844 196.050781 525.816406 193.207031 534.765625 C 190.714844 542.582031 187.46875 550.355469 184.332031 557.871094 L 184.25 558.070312 C 183.859375 559.003906 184.28125 560.070312 185.207031 560.5 L 185.65625 560.675781 L 185.992188 560.675781 C 186.722656 560.675781 187.386719 560.25 187.699219 559.582031 C 191.132812 552.1875 194.703125 544.289062 197.421875 536.140625 C 200.464844 527.0625 202.042969 518.785156 202.253906 510.84375 C 202.40625 501.824219 200.484375 493.042969 196.683594 485.449219 C 194.609375 481.332031 192.0625 477.703125 189.097656 474.664062 Z M 290.261719 540.796875 L 290.5 540.785156 L 290.625 540.769531 C 291.425781 540.636719 292.109375 540.089844 292.40625 539.328125 C 292.585938 538.875 310.144531 493.347656 304.875 449.484375 L 303.3125 449.382812 L 300.242188 449.242188 L 300.222656 449.402344 L 300.253906 449.609375 C 304.660156 485.214844 293.492188 522.105469 289.460938 533.894531 L 226.039062 457.015625 C 225.472656 457.351562 224.890625 457.671875 224.296875 457.96875 C 223.457031 458.378906 222.597656 458.730469 221.726562 459.035156 L 288.484375 539.957031 C 288.921875 540.488281 289.570312 540.796875 290.261719 540.796875 Z M 364.308594 703.1875 L 452.46875 736.101562 L 298.734375 736.101562 L 258.929688 707.535156 C 260.957031 707.636719 263.097656 707.613281 265.371094 707.378906 C 278.941406 705.972656 282.296875 703.765625 282.96875 703.1875 L 283.6875 703.1875 L 295.871094 706.324219 C 298.714844 707.054688 301.683594 705.746094 303.085938 703.1875 L 317.3125 703.1875 L 318.773438 706.804688 C 318.972656 707.316406 319.304688 707.765625 319.734375 708.109375 L 324.265625 711.761719 C 324.6875 712.105469 325.328125 711.851562 325.402344 711.3125 L 326.199219 705.539062 C 326.277344 704.996094 326.210938 704.445312 326.011719 703.933594 L 325.703125 703.1875 L 364.308594 703.1875"/><path fill="#FFF" d="M 383.273438 497.84375 C 376.277344 489.25 371.679688 478.140625 366.046875 467.929688 C 370.042969 462.039062 371.195312 454.464844 375.460938 448.722656 C 380.320312 442.203125 388.644531 438.886719 393.257812 432.183594 C 396.914062 426.871094 397.742188 420.015625 396.867188 413.617188 C 396.570312 411.453125 396.082031 409.320312 395.496094 407.21875 C 396.023438 405.285156 395.699219 402.8125 394.703125 401.183594 C 394.324219 401.238281 393.945312 401.300781 393.570312 401.355469 C 392.898438 399.53125 392.1875 397.71875 391.460938 395.921875 C 391.753906 395.65625 391.984375 395.375 392.121094 395.066406 C 393.070312 392.882812 392.0625 389.402344 389.863281 388.476562 C 388 387.699219 386.132812 386.960938 384.242188 386.253906 C 389.378906 386.847656 392.035156 381.101562 388.394531 376.828125 C 384.195312 371.910156 376.59375 367.9375 371.480469 363.898438 C 370.308594 362.957031 369.097656 362.011719 367.652344 361.59375 C 366.210938 361.175781 364.472656 361.410156 363.519531 362.570312 C 361.863281 364.550781 363.402344 367.496094 364.933594 369.5625 C 369.371094 375.578125 374.152344 381.808594 380.804688 385.054688 C 375.96875 383.394531 371.058594 381.957031 366.066406 380.8125 C 364.496094 382 364.121094 384.328125 364.761719 386.199219 C 365.390625 388.074219 366.820312 389.558594 368.324219 390.835938 C 369.929688 392.207031 371.675781 393.40625 373.523438 394.429688 C 373.449219 394.464844 373.363281 394.5 373.285156 394.550781 C 372.042969 395.261719 370.890625 396.109375 369.820312 397.058594 C 370 395.921875 369.875 394.800781 369.285156 393.820312 C 362.941406 394.859375 356.578125 394.246094 350.214844 393.371094 C 340.738281 413.121094 334.601562 434.46875 332.140625 456.230469 C 330.574219 460.625 330.078125 465.007812 332.042969 468.46875 C 332.039062 468.46875 332.023438 468.46875 332.019531 468.46875 C 344.671875 496.703125 357.3125 524.9375 369.960938 553.167969 C 377.4375 569.886719 384.972656 586.636719 394.109375 602.480469 L 407.957031 525.433594 C 399.304688 516.625 391.066406 507.414062 383.273438 497.84375 Z M 647.605469 188.015625 L 607.851562 188.015625 L 607.851562 220.496094 L 647.605469 220.496094 Z M 698.433594 137.882812 L 655.605469 137.882812 L 655.605469 180.726562 L 698.433594 180.726562 Z M 695.578125 197.480469 L 675.980469 197.480469 L 675.980469 199.015625 L 695.578125 199.015625 Z M 691.378906 215.71875 L 675.980469 215.71875 L 675.980469 217.257812 L 691.378906 217.257812 Z M 656.375 215.71875 L 656.375 217.257812 L 672.496094 217.257812 L 672.496094 215.71875 Z M 656.375 210.226562 L 656.375 211.761719 L 687.882812 211.761719 L 687.882812 210.226562 Z M 656.375 202.972656 L 656.375 204.507812 L 678.90625 204.507812 L 678.90625 202.972656 Z M 656.375 197.480469 L 656.375 199.015625 L 672.496094 199.015625 L 672.496094 197.480469 Z M 672.496094 188.015625 L 672.496094 186.480469 L 656.375 186.480469 L 656.375 188.015625 Z M 656.375 191.976562 L 656.375 193.515625 L 687.882812 193.515625 L 687.882812 191.976562 Z M 678.90625 221.21875 L 656.375 221.21875 L 656.375 222.757812 L 678.90625 222.757812 Z M 649.136719 96.585938 L 606.3125 96.585938 L 606.3125 132.816406 L 649.136719 132.816406 Z M 607.082031 178.46875 L 607.082031 180.007812 L 642.09375 180.007812 L 642.09375 178.46875 Z M 607.082031 173.160156 L 607.082031 174.699219 L 629.621094 174.699219 L 629.621094 173.160156 Z M 607.082031 167.660156 L 607.082031 169.195312 L 623.199219 169.195312 L 623.199219 167.660156 Z M 626.683594 167.660156 L 626.683594 169.195312 L 642.09375 169.195312 L 642.09375 167.660156 Z M 607.082031 162.160156 L 607.082031 163.699219 L 638.589844 163.699219 L 638.589844 162.160156 Z M 607.082031 154.910156 L 607.082031 156.449219 L 629.621094 156.449219 L 629.621094 154.910156 Z M 607.082031 149.414062 L 607.082031 150.953125 L 623.199219 150.953125 L 623.199219 149.414062 Z M 607.082031 143.917969 L 607.082031 145.453125 L 638.589844 145.453125 L 638.589844 143.917969 Z M 626.683594 149.414062 L 626.683594 150.953125 L 646.289062 150.953125 L 646.289062 149.414062 Z M 638.589844 137.882812 L 607.082031 137.882812 L 607.082031 139.421875 L 638.589844 139.421875 Z M 649.136719 186.480469 L 606.3125 186.480469 L 606.3125 222.03125 L 649.136719 222.03125 Z M 657.417969 132.816406 L 688.925781 132.816406 L 688.925781 131.277344 L 657.417969 131.277344 Z M 657.417969 127.363281 L 679.953125 127.363281 L 679.953125 125.828125 L 657.417969 125.828125 Z M 657.417969 121.867188 L 673.542969 121.867188 L 673.542969 120.328125 L 657.417969 120.328125 Z M 677.015625 120.328125 L 677.015625 121.867188 L 692.425781 121.867188 L 692.425781 120.328125 Z M 657.417969 116.371094 L 688.925781 116.371094 L 688.925781 114.832031 L 657.417969 114.832031 Z M 657.417969 109.113281 L 679.953125 109.113281 L 679.953125 107.582031 L 657.417969 107.582031 Z M 657.417969 103.617188 L 673.542969 103.617188 L 673.542969 102.078125 L 657.417969 102.078125 Z M 677.015625 102.078125 L 677.015625 103.617188 L 696.621094 103.617188 L 696.621094 102.078125 Z M 657.417969 98.125 L 688.925781 98.125 L 688.925781 96.585938 L 657.417969 96.585938 Z M 707.636719 86.757812 L 707.636719 231.863281 L 593.710938 231.863281 L 593.710938 86.757812 Z M 696.902344 139.421875 L 657.140625 139.421875 L 657.140625 179.1875 L 696.902344 179.1875 Z M 647.605469 98.125 L 607.851562 98.125 L 607.851562 131.277344 L 647.605469 131.277344 Z M 311.046875 666.742188 L 314.824219 676.136719 C 314.5625 675.59375 314.253906 675.0625 313.839844 674.609375 L 301.355469 660.75 C 299.945312 659.183594 298.144531 658.003906 296.140625 657.351562 L 275.101562 650.457031 C 270.621094 648.992188 265.699219 650.261719 262.496094 653.714844 L 245.960938 671.496094 L 134.832031 668.25 L 149.894531 637.828125 L 147.367188 631.902344 C 137.335938 608.40625 116.03125 591.640625 90.84375 587.40625 C 90.84375 587.40625 53.910156 673.253906 56.410156 682.4375 C 58.914062 691.617188 64.757812 717.722656 94.789062 717.722656 C 116.421875 717.722656 199.972656 709.191406 244.996094 704.417969 C 249.546875 706.332031 256.609375 708.28125 265.371094 707.378906 C 281.09375 705.753906 283.121094 703.039062 283.121094 703.039062 L 295.871094 706.324219 C 298.785156 707.070312 301.832031 705.691406 303.195312 703.007812 L 304.339844 700.761719 C 305.042969 699.382812 306.417969 698.46875 307.964844 698.367188 L 308.742188 698.3125 C 313.960938 697.972656 317.328125 692.640625 315.402344 687.773438 L 315.445312 678.828125 C 315.453125 678.15625 315.324219 677.5 315.121094 676.878906 L 315.125 676.898438 C 320.945312 677.261719 325.476562 674.042969 321.878906 670.730469 C 319.675781 668.707031 315.042969 667.46875 311.046875 666.742188 Z M 304.890625 551.089844 C 304.890625 543.023438 298.332031 536.457031 290.261719 536.457031 C 282.195312 536.457031 275.628906 543.023438 275.628906 551.089844 C 275.628906 559.160156 282.195312 565.722656 290.261719 565.722656 C 298.332031 565.722656 304.890625 559.160156 304.890625 551.089844 Z M 245.269531 374.171875 C 244.816406 374.089844 244.355469 374.007812 243.902344 373.90625 C 239.652344 383.03125 239.488281 393.492188 240.078125 403.539062 C 240.667969 413.589844 241.921875 423.738281 240.238281 433.660156 C 240.050781 434.789062 239.800781 435.917969 239.519531 437.039062 C 240.539062 435.382812 241.378906 433.609375 241.996094 431.761719 C 244.203125 425.078125 244.046875 417.859375 243.871094 410.730469 C 243.765625 403.570312 243.804688 396.386719 244.15625 389.222656 C 244.394531 384.195312 244.769531 379.179688 245.269531 374.171875 Z M 279.96875 369.355469 C 283.085938 367.351562 285.433594 364.257812 287.511719 361.085938 C 283.171875 364.910156 277.574219 367.109375 271.78125 366.316406 C 269.660156 368.136719 267.367188 369.6875 264.960938 370.949219 C 266.332031 371.1875 267.699219 371.402344 269.074219 371.515625 C 272.894531 371.882812 276.832031 371.445312 279.96875 369.355469 Z M 354.917969 344.027344 C 353.480469 341.667969 352.394531 339.070312 351.683594 336.40625 C 350.066406 330.355469 350.066406 324.003906 350.074219 317.734375 C 350.085938 315.246094 350 312.582031 349.542969 310.085938 C 348.855469 309.695312 348.148438 309.335938 347.421875 309.054688 C 346.378906 308.65625 345.308594 308.339844 344.210938 308.164062 C 343.117188 307.964844 342.003906 307.902344 340.886719 307.929688 C 339.761719 307.964844 338.644531 308.140625 337.515625 308.394531 C 337.351562 308.433594 337.191406 308.332031 337.152344 308.175781 C 337.125 308.042969 337.1875 307.917969 337.289062 307.851562 C 338.339844 307.21875 339.535156 306.835938 340.753906 306.636719 C 341.980469 306.425781 343.238281 306.457031 344.460938 306.648438 C 345.6875 306.855469 346.898438 307.230469 347.984375 307.816406 C 348.417969 308.042969 348.824219 308.3125 349.21875 308.59375 C 348.878906 307.3125 348.425781 306.101562 347.800781 304.992188 C 347.574219 304.941406 347.335938 304.882812 347.113281 304.84375 C 346.386719 304.714844 345.667969 304.601562 344.9375 304.5625 C 344.210938 304.5 343.484375 304.511719 342.746094 304.535156 C 342.007812 304.566406 341.269531 304.664062 340.496094 304.761719 C 340.332031 304.777344 340.175781 304.664062 340.160156 304.5 C 340.140625 304.378906 340.203125 304.273438 340.289062 304.207031 C 340.972656 303.746094 341.75 303.445312 342.5625 303.253906 C 343.363281 303.050781 344.207031 302.992188 345.035156 303.03125 C 345.570312 303.066406 346.097656 303.164062 346.613281 303.289062 C 346.257812 302.871094 345.859375 302.484375 345.429688 302.125 C 344.355469 301.992188 343.285156 301.960938 342.242188 302.101562 C 341.136719 302.25 340.058594 302.515625 339.035156 302.9375 C 338.003906 303.347656 337.042969 303.914062 336.144531 304.574219 C 335.25 305.246094 334.457031 306.054688 333.75 306.972656 C 333.648438 307.105469 333.460938 307.132812 333.332031 307.035156 C 333.222656 306.957031 333.1875 306.816406 333.234375 306.691406 C 334.09375 304.34375 336.128906 302.488281 338.449219 301.523438 C 339.625 301.042969 340.878906 300.746094 342.148438 300.742188 C 342.46875 300.734375 342.789062 300.746094 343.109375 300.773438 C 338.214844 299.007812 331.226562 301.960938 329.832031 306.96875 C 329.429688 302.523438 325.898438 298.691406 321.664062 297.472656 C 322.011719 297.746094 322.363281 298.019531 322.691406 298.328125 C 323.636719 299.265625 324.449219 300.328125 325.050781 301.507812 C 325.660156 302.683594 326.082031 303.949219 326.214844 305.246094 C 326.226562 305.40625 326.113281 305.554688 325.945312 305.570312 C 325.8125 305.578125 325.695312 305.503906 325.644531 305.390625 C 325.164062 304.242188 324.605469 303.164062 323.933594 302.167969 C 323.25 301.179688 322.492188 300.25 321.625 299.429688 C 320.769531 298.601562 319.816406 297.878906 318.800781 297.234375 C 318.707031 297.175781 318.605469 297.128906 318.507812 297.074219 C 318.355469 297.078125 318.207031 297.074219 318.058594 297.082031 C 316.742188 297.195312 315.5 297.539062 314.324219 298.054688 C 315.15625 298.125 315.984375 298.289062 316.78125 298.535156 C 319.339844 299.351562 321.679688 301.113281 322.859375 303.503906 C 322.929688 303.648438 322.871094 303.828125 322.726562 303.898438 C 322.609375 303.960938 322.460938 303.925781 322.375 303.832031 C 321.527344 302.917969 320.601562 302.125 319.582031 301.488281 C 318.554688 300.859375 317.464844 300.34375 316.320312 300 C 315.1875 299.636719 313.996094 299.445312 312.804688 299.386719 C 312.503906 299.371094 312.210938 299.402344 311.910156 299.417969 C 311.140625 299.945312 310.402344 300.535156 309.707031 301.191406 C 310.125 301.15625 310.550781 301.144531 310.964844 301.148438 C 311.765625 301.1875 312.566406 301.277344 313.339844 301.492188 C 314.113281 301.691406 314.871094 301.96875 315.566406 302.382812 C 315.703125 302.46875 315.75 302.652344 315.667969 302.796875 C 315.605469 302.898438 315.5 302.949219 315.386719 302.9375 L 313.132812 302.769531 C 312.390625 302.734375 311.664062 302.6875 310.933594 302.6875 C 310.199219 302.671875 309.46875 302.691406 308.726562 302.707031 L 308.210938 302.730469 C 307.066406 304.015625 306.035156 305.414062 305.121094 306.832031 C 301.089844 313.054688 297.589844 319.890625 297.71875 327.308594 C 297.871094 336.3125 297.402344 345.664062 293.289062 353.675781 C 292.585938 355.058594 291.738281 356.363281 290.796875 357.589844 C 290.160156 358.933594 289.488281 360.261719 288.734375 361.546875 C 286.714844 364.980469 284.234375 368.285156 280.796875 370.625 C 277.28125 372.988281 272.882812 373.363281 268.933594 372.890625 C 266.988281 372.660156 265.09375 372.261719 263.226562 371.792969 C 261.226562 372.699219 259.15625 373.414062 257.035156 373.894531 C 257.734375 376.128906 258.527344 378.324219 259.425781 380.480469 C 261.359375 385.105469 263.726562 389.539062 266.546875 393.679688 C 269.308594 397.851562 272.542969 401.714844 276.089844 405.25 C 279.652344 408.773438 283.550781 411.96875 287.757812 414.738281 C 287.898438 414.824219 287.933594 415.007812 287.84375 415.144531 C 287.757812 415.269531 287.589844 415.3125 287.453125 415.234375 C 283.035156 412.730469 278.90625 409.679688 275.1875 406.179688 C 271.464844 402.691406 268.164062 398.75 265.273438 394.535156 C 262.4375 390.285156 260.011719 385.753906 258.164062 380.992188 C 257.289062 378.746094 256.542969 376.445312 255.925781 374.117188 C 252.734375 374.71875 249.449219 374.804688 246.148438 374.320312 C 245.847656 379.304688 245.601562 384.289062 245.457031 389.273438 C 245.265625 396.417969 245.210938 403.558594 245.402344 410.699219 C 245.515625 417.816406 245.714844 425.230469 243.285156 432.203125 C 242.210938 435.199219 240.59375 438 238.511719 440.40625 C 236.566406 446.058594 233.378906 451.285156 228.90625 454.96875 C 236.054688 466.941406 244.332031 478.296875 254.851562 487.390625 C 267.113281 497.976562 282.757812 505.304688 298.953125 505.113281 C 302.683594 505.066406 306.496094 504.605469 309.804688 502.890625 C 313.109375 501.175781 315.839844 498.023438 316.261719 494.320312 C 316.882812 488.746094 312.394531 483.984375 307.898438 480.640625 C 303.402344 477.296875 295.824219 474.007812 296.15625 468.417969 C 297.082031 453.25 297.800781 437.789062 298.726562 422.621094 C 306.570312 425.589844 315.265625 428.566406 323.125 425.644531 C 330.230469 423.003906 334.8125 416.171875 338.359375 409.46875 C 348.996094 389.398438 354.644531 366.738281 354.917969 344.027344 Z M 168.679688 319.332031 L 134.984375 319.332031 L 134.984375 233.410156 C 134.464844 234.234375 133.949219 235.039062 133.449219 235.871094 L 133.449219 320.871094 L 168.558594 320.871094 C 168.601562 320.355469 168.617188 319.84375 168.679688 319.332031 Z M 251.203125 247.203125 C 251.707031 246.972656 252.222656 246.769531 252.738281 246.550781 L 252.738281 142.847656 L 209 142.847656 C 208.449219 143.359375 207.90625 143.875 207.359375 144.386719 L 251.203125 144.386719 Z M 372.648438 271.191406 C 373.0625 271.691406 373.464844 272.203125 373.847656 272.722656 L 408.800781 272.722656 L 408.800781 94.707031 L 289.503906 94.707031 L 289.503906 242.191406 C 290.023438 242.285156 290.53125 242.402344 291.042969 242.519531 L 291.042969 96.246094 L 407.261719 96.246094 L 407.261719 271.191406 Z M 284.898438 241.507812 L 284.898438 90.09375 L 413.40625 90.09375 L 413.40625 277.335938 L 376.851562 277.335938 C 377.136719 277.847656 377.425781 278.359375 377.699219 278.875 L 414.945312 278.875 L 414.945312 88.554688 L 287.074219 88.554688 C 285.832031 89.160156 284.589844 89.757812 283.359375 90.375 L 283.359375 241.363281 C 283.675781 241.390625 283.988281 241.394531 284.304688 241.425781 C 284.503906 241.445312 284.699219 241.484375 284.898438 241.507812 Z M 257.398438 244.730469 C 257.90625 244.554688 258.421875 244.382812 258.933594 244.214844 L 258.933594 136.703125 L 215.789062 136.703125 C 215.214844 137.214844 214.648438 137.730469 214.078125 138.238281 L 257.398438 138.238281 Z M 168.488281 327.015625 L 127.347656 327.015625 L 127.347656 246.074219 C 127.867188 245.203125 128.367188 244.316406 128.886719 243.445312 L 128.886719 325.480469 L 168.421875 325.480469 C 168.433594 325.988281 168.457031 326.5 168.488281 327.015625"/><g clip-path="url(#b)"><path fill="#4856A2" d="M 289.699219 702.785156 C 289.0625 702.15625 288.4375 701.511719 287.878906 700.824219 C 287.304688 700.144531 286.792969 699.417969 286.289062 698.671875 C 285.792969 697.917969 285.351562 697.128906 284.898438 696.308594 C 284.84375 696.203125 284.730469 696.136719 284.601562 696.160156 C 284.4375 696.175781 284.320312 696.320312 284.335938 696.484375 C 284.449219 697.457031 284.746094 698.398438 285.148438 699.289062 C 285.316406 699.679688 285.519531 700.042969 285.734375 700.402344 C 285.648438 700.476562 285.550781 700.542969 285.46875 700.617188 C 285.167969 700.9375 284.964844 701.332031 284.816406 701.742188 C 284.699219 702.152344 284.621094 702.574219 284.667969 703.007812 C 284.703125 703.429688 284.804688 703.855469 285.050781 704.214844 C 285.097656 704.269531 285.148438 704.3125 285.214844 704.335938 C 285.382812 704.394531 285.5625 704.3125 285.628906 704.144531 L 285.632812 704.117188 C 285.765625 703.761719 285.851562 703.433594 285.960938 703.128906 C 286.074219 702.820312 286.160156 702.53125 286.273438 702.238281 C 286.347656 702.011719 286.441406 701.792969 286.527344 701.570312 C 286.582031 701.640625 286.628906 701.722656 286.691406 701.792969 C 287.320312 702.558594 288.023438 703.253906 288.832031 703.832031 C 289.621094 704.398438 290.480469 704.894531 291.414062 705.195312 C 291.546875 705.238281 291.703125 705.195312 291.800781 705.078125 C 291.921875 704.929688 291.902344 704.707031 291.746094 704.582031 C 291.039062 703.984375 290.34375 703.414062 289.699219 702.785156 Z M 307.433594 678.289062 C 308.894531 679.867188 310.25 681.558594 311.582031 683.253906 C 312.90625 684.960938 314.167969 686.71875 315.417969 688.5 C 315.5 688.617188 315.648438 688.660156 315.78125 688.597656 C 315.933594 688.527344 315.988281 688.351562 315.929688 688.207031 C 314.988281 686.214844 313.859375 684.316406 312.628906 682.492188 C 311.398438 680.664062 310.011719 678.941406 308.578125 677.265625 C 307.085938 675.640625 305.539062 674.0625 303.875 672.621094 C 302.203125 671.179688 300.449219 669.832031 298.582031 668.667969 C 298.445312 668.582031 298.253906 668.605469 298.136719 668.734375 C 298.015625 668.882812 298.023438 669.101562 298.167969 669.230469 C 299.796875 670.667969 301.410156 672.109375 302.953125 673.625 C 304.503906 675.125 306.015625 676.664062 307.433594 678.289062 Z M 283.402344 701.621094 C 283.328125 701.417969 283.257812 701.210938 283.128906 701.023438 C 283.019531 700.824219 282.890625 700.617188 282.675781 700.417969 L 282.65625 700.410156 C 282.632812 700.382812 282.605469 700.363281 282.570312 700.34375 C 282.359375 700.234375 282.09375 700.316406 281.992188 700.527344 C 281.847656 700.808594 281.816406 701.082031 281.816406 701.34375 C 281.804688 701.613281 281.871094 701.875 281.957031 702.125 C 282.058594 702.367188 282.164062 702.605469 282.347656 702.804688 C 282.523438 703.015625 282.722656 703.199219 283.011719 703.328125 C 283.035156 703.335938 283.066406 703.351562 283.09375 703.351562 C 283.292969 703.386719 283.488281 703.253906 283.523438 703.054688 L 283.523438 703.046875 C 283.574219 702.75 283.558594 702.507812 283.535156 702.273438 C 283.527344 702.042969 283.460938 701.835938 283.402344 701.621094 Z M 137.9375 668.367188 C 133.632812 667.582031 129.253906 667.207031 124.867188 667.144531 C 120.480469 667.089844 116.09375 667.410156 111.746094 667.996094 C 107.402344 668.652344 103.101562 669.558594 98.90625 670.839844 C 94.710938 672.109375 90.613281 673.695312 86.695312 675.640625 C 86.5625 675.707031 86.496094 675.871094 86.550781 676.015625 C 86.613281 676.164062 86.789062 676.234375 86.9375 676.175781 C 90.976562 674.582031 95.082031 673.199219 99.265625 672.085938 C 103.445312 670.976562 107.675781 670.078125 111.964844 669.515625 C 116.234375 668.886719 120.550781 668.582031 124.878906 668.507812 C 129.199219 668.433594 133.523438 668.632812 137.839844 669.054688 C 138.019531 669.070312 138.1875 668.949219 138.21875 668.765625 C 138.253906 668.582031 138.128906 668.402344 137.9375 668.367188 Z M 244.207031 703.878906 C 241.582031 702.371094 239.984375 699.140625 240.363281 695.949219 C 240.378906 695.785156 240.28125 695.621094 240.121094 695.570312 C 239.933594 695.507812 239.742188 695.613281 239.683594 695.796875 C 238.824219 698.453125 239.625 701.511719 241.542969 703.632812 C 240.503906 703.46875 239.476562 703.1875 238.519531 702.769531 C 236.867188 702.050781 235.359375 700.890625 234.625 699.203125 C 234.574219 699.074219 234.4375 699 234.296875 699.03125 C 234.140625 699.054688 234.035156 699.214844 234.0625 699.378906 C 234.253906 700.382812 234.808594 701.3125 235.484375 702.09375 C 236.1875 702.855469 237.027344 703.480469 237.929688 703.96875 C 239.742188 704.925781 241.789062 705.40625 243.867188 705.308594 C 244.117188 705.289062 244.367188 705.152344 244.496094 704.925781 C 244.703125 704.550781 244.574219 704.089844 244.207031 703.878906 Z M 365.527344 469.40625 C 364.785156 469.851562 364.074219 470.300781 363.351562 470.695312 C 362.609375 471.089844 361.882812 471.476562 361.132812 471.808594 C 360.386719 472.15625 359.621094 472.453125 358.84375 472.746094 C 358.066406 473.035156 357.265625 473.273438 356.449219 473.546875 C 356.320312 473.585938 356.21875 473.703125 356.203125 473.847656 C 356.1875 474.042969 356.332031 474.214844 356.527344 474.234375 C 357.425781 474.324219 358.324219 474.234375 359.214844 474.050781 C 360.097656 473.882812 360.953125 473.582031 361.777344 473.203125 C 362.59375 472.8125 363.375 472.351562 364.074219 471.777344 C 364.769531 471.210938 365.417969 470.578125 365.929688 469.832031 C 365.996094 469.746094 366 469.613281 365.945312 469.511719 C 365.851562 469.371094 365.664062 469.320312 365.527344 469.40625 Z M 318.171875 407.375 C 317.617188 407.351562 317.078125 407.371094 316.53125 407.371094 C 315.988281 407.378906 315.453125 407.375 314.902344 407.40625 C 314.34375 407.429688 313.789062 407.441406 313.210938 407.519531 C 313.113281 407.527344 313.027344 407.589844 312.976562 407.679688 C 312.894531 407.824219 312.949219 408.019531 313.097656 408.09375 C 313.625 408.398438 314.195312 408.570312 314.773438 408.703125 C 315.351562 408.839844 315.945312 408.886719 316.53125 408.902344 C 317.128906 408.902344 317.722656 408.863281 318.296875 408.734375 C 318.878906 408.605469 319.449219 408.441406 319.984375 408.152344 C 320.082031 408.09375 320.15625 407.992188 320.167969 407.875 C 320.195312 407.675781 320.050781 407.488281 319.851562 407.464844 C 319.269531 407.390625 318.71875 407.390625 318.171875 407.375 Z M 319.675781 394.828125 L 310.832031 394.296875 L 303.613281 393.769531 C 305.207031 395.613281 307.253906 397.121094 309.441406 398.3125 C 310.78125 399.042969 312.183594 399.65625 313.640625 400.136719 C 315.054688 400.605469 316.660156 400.9375 318.027344 401.046875 L 318.128906 401.050781 C 320.652344 399.910156 323.09375 398.183594 325.050781 396.152344 C 325.292969 395.910156 325.578125 395.605469 325.75 395.390625 C 325.816406 395.308594 325.847656 395.234375 325.867188 395.191406 C 325.800781 395.160156 325.535156 395.113281 325.203125 395.113281 L 324.097656 395.0625 C 322.625 394.996094 321.148438 394.914062 319.675781 394.828125 Z M 310.933594 392.773438 L 319.769531 393.421875 C 321.246094 393.523438 322.714844 393.640625 324.1875 393.773438 L 325.292969 393.871094 C 325.628906 393.933594 326.125 393.847656 326.707031 394.316406 C 327.003906 394.566406 327.125 395.03125 327.042969 395.378906 C 326.964844 395.722656 326.808594 395.929688 326.664062 396.109375 C 326.359375 396.453125 326.125 396.675781 325.835938 396.953125 C 323.625 399.058594 321.0625 400.605469 318.140625 401.679688 L 318.027344 401.71875 C 316.332031 401.6875 314.902344 401.414062 313.375 401.003906 C 311.847656 400.578125 310.359375 400.007812 308.929688 399.3125 C 307.511719 398.601562 306.140625 397.773438 304.871094 396.792969 C 303.597656 395.816406 302.40625 394.699219 301.453125 393.339844 C 301.222656 393.023438 301.304688 392.578125 301.621094 392.359375 C 301.757812 392.261719 301.917969 392.222656 302.070312 392.230469 L 302.089844 392.230469 Z M 326.65625 385.664062 C 327.640625 385.871094 328.699219 385.609375 329.578125 385.128906 C 330.449219 384.621094 331.179688 383.878906 331.707031 383.003906 C 332.753906 381.238281 332.867188 379.183594 332.753906 377.324219 C 332.605469 375.453125 332.277344 373.605469 331.695312 371.832031 C 331.128906 370.0625 330.367188 368.351562 329.367188 366.804688 C 329.285156 366.6875 329.144531 366.636719 329.015625 366.6875 C 328.855469 366.75 328.785156 366.917969 328.847656 367.066406 C 329.496094 368.757812 330.050781 370.449219 330.445312 372.183594 C 330.839844 373.910156 331.121094 375.664062 331.222656 377.421875 C 331.339844 379.160156 331.222656 380.894531 330.511719 382.347656 C 329.8125 383.761719 328.382812 384.960938 326.726562 384.972656 C 326.5625 384.972656 326.414062 385.085938 326.382812 385.25 C 326.34375 385.4375 326.460938 385.621094 326.65625 385.664062 Z M 291.460938 341.421875 C 293.664062 340.683594 295.898438 340.125 298.167969 339.808594 C 300.4375 339.492188 302.730469 339.355469 305.011719 339.511719 C 307.296875 339.605469 309.5625 339.972656 311.785156 340.527344 C 314.003906 341.074219 316.164062 341.867188 318.277344 342.824219 C 318.429688 342.894531 318.621094 342.84375 318.710938 342.695312 C 318.820312 342.539062 318.777344 342.324219 318.613281 342.214844 C 316.628906 340.90625 314.429688 339.921875 312.148438 339.21875 C 309.859375 338.511719 307.480469 338.132812 305.089844 337.980469 C 302.695312 337.902344 300.289062 338.042969 297.953125 338.53125 C 295.609375 339.011719 293.332031 339.777344 291.230469 340.882812 C 291.105469 340.949219 291.042969 341.097656 291.085938 341.234375 C 291.140625 341.394531 291.308594 341.476562 291.460938 341.421875 Z M 339.128906 345.941406 C 340.269531 344.996094 341.457031 344.171875 342.734375 343.507812 C 344.007812 342.855469 345.339844 342.316406 346.71875 341.957031 C 348.097656 341.578125 349.511719 341.367188 350.941406 341.296875 C 352.378906 341.222656 353.8125 341.335938 355.265625 341.570312 C 355.417969 341.597656 355.582031 341.519531 355.648438 341.363281 C 355.722656 341.1875 355.640625 340.980469 355.464844 340.90625 C 354.042969 340.300781 352.496094 340 350.941406 339.933594 C 349.386719 339.859375 347.816406 340.066406 346.316406 340.472656 C 344.820312 340.902344 343.363281 341.527344 342.074219 342.390625 C 340.777344 343.242188 339.601562 344.289062 338.699219 345.535156 C 338.621094 345.644531 338.621094 345.792969 338.714844 345.898438 C 338.816406 346.027344 339.007812 346.042969 339.128906 345.941406 Z M 763.667969 411.074219 L 441.996094 411.074219 C 438.71875 411.074219 435.914062 413.414062 435.332031 416.648438 L 391.613281 659.980469 C 390.859375 664.136719 394.046875 667.949219 398.269531 667.949219 L 569.878906 667.949219 L 574.785156 689.578125 C 575.429688 692.359375 576.113281 695.125 576.761719 697.902344 L 496.128906 697.902344 L 466.894531 714.105469 L 580.609375 714.105469 C 580.613281 714.132812 580.621094 714.15625 580.625 714.183594 C 580.671875 714.363281 580.851562 714.480469 581.035156 714.441406 C 581.222656 714.40625 581.339844 714.21875 581.304688 714.035156 C 579.625 705.773438 577.902344 697.523438 576.113281 689.28125 L 570.683594 664.589844 L 565.0625 639.9375 C 563.164062 631.75 561.210938 623.574219 559.214844 615.410156 L 608.507812 615.410156 C 608.507812 615.425781 608.5 615.445312 608.5 615.472656 C 610.175781 623.734375 611.890625 631.988281 613.667969 640.226562 L 619.0625 664.921875 L 624.664062 689.578125 C 626.554688 697.792969 628.507812 705.992188 630.5 714.183594 C 630.539062 714.363281 630.722656 714.480469 630.90625 714.441406 C 631.070312 714.414062 631.15625 714.261719 631.167969 714.105469 L 672.296875 714.105469 L 643.832031 697.902344 L 627.796875 697.902344 C 627.195312 695.03125 626.609375 692.152344 625.992188 689.28125 L 621.304688 667.949219 L 719.9375 667.949219 C 723.210938 667.949219 726.019531 665.601562 726.59375 662.378906 L 770.320312 419.035156 C 771.074219 414.886719 767.875 411.074219 763.667969 411.074219 Z M 369.386719 474.234375 C 373.65625 482.546875 377.703125 491 383.273438 497.84375 C 391.066406 507.414062 399.304688 516.625 407.957031 525.433594 L 409.863281 514.847656 C 399.441406 504.960938 389.453125 494.773438 383.230469 486.753906 C 379.664062 482.15625 374.832031 477.976562 369.386719 474.234375 Z M 326.964844 594.566406 C 326.964844 594.445312 326.886719 594.320312 326.761719 594.28125 C 326.605469 594.234375 326.4375 594.316406 326.390625 594.476562 L 325.308594 597.796875 C 324.921875 598.882812 324.554688 599.976562 324.136719 601.050781 C 323.734375 602.128906 323.289062 603.1875 322.855469 604.253906 L 321.460938 607.457031 C 321.410156 607.59375 321.433594 607.757812 321.5625 607.859375 C 321.707031 607.988281 321.929688 607.972656 322.054688 607.820312 C 322.835938 606.910156 323.484375 605.898438 324.070312 604.855469 C 324.667969 603.808594 325.152344 602.710938 325.570312 601.585938 C 325.980469 600.457031 326.332031 599.3125 326.558594 598.128906 C 326.796875 596.957031 326.960938 595.769531 326.964844 594.566406 Z M 200.714844 510.820312 C 200.863281 502.324219 199.121094 493.757812 195.316406 486.140625 C 193.398438 482.34375 190.972656 478.792969 188 475.742188 C 185.023438 472.714844 181.5 470.207031 177.628906 468.492188 C 177.484375 468.425781 177.308594 468.488281 177.242188 468.632812 C 177.171875 468.773438 177.234375 468.949219 177.382812 469.023438 C 184.90625 472.671875 190.601562 479.285156 194.152344 486.710938 C 197.703125 494.179688 199.402344 502.519531 199.1875 510.785156 C 199.019531 519.085938 197.199219 527.289062 194.671875 535.226562 C 192.136719 543.183594 188.90625 550.917969 185.667969 558.65625 C 185.59375 558.824219 185.671875 559.027344 185.847656 559.105469 C 186.019531 559.1875 186.222656 559.105469 186.304688 558.933594 C 189.835938 551.324219 193.292969 543.652344 195.964844 535.65625 C 198.640625 527.664062 200.496094 519.316406 200.714844 510.820312 Z M 182.601562 571.765625 C 182.453125 571.679688 182.273438 571.71875 182.191406 571.863281 C 181.171875 573.558594 180.238281 575.296875 179.3125 577.039062 C 178.382812 578.777344 177.539062 580.558594 176.644531 582.316406 C 175.8125 584.105469 174.957031 585.882812 174.160156 587.679688 C 173.367188 589.488281 172.585938 591.300781 171.894531 593.15625 C 171.839844 593.308594 171.902344 593.488281 172.042969 593.582031 C 172.214844 593.671875 172.433594 593.621094 172.523438 593.457031 C 173.546875 591.757812 174.46875 590.019531 175.382812 588.273438 C 176.292969 586.519531 177.148438 584.746094 178.023438 582.980469 C 178.84375 581.1875 179.699219 579.414062 180.480469 577.601562 C 181.269531 575.792969 182.039062 573.972656 182.71875 572.117188 C 182.765625 571.984375 182.71875 571.835938 182.601562 571.765625 Z M 392.691406 599.972656 L 386.273438 605.394531 C 379.011719 627.722656 360.867188 663.246094 360.867188 663.246094 L 360.867188 701.464844 L 325.015625 701.464844 L 315.125 676.898438 C 320.945312 677.261719 325.476562 674.042969 321.878906 670.730469 C 319.675781 668.707031 315.042969 667.46875 311.039062 666.734375 L 294.808594 626.390625 C 297.191406 622.933594 299.40625 619.359375 301.40625 615.664062 C 304.496094 609.949219 307.097656 603.984375 309.273438 597.859375 C 311.386719 591.722656 313.09375 585.433594 314.234375 579.042969 C 315.390625 572.65625 316.015625 566.171875 316.085938 559.695312 C 316.085938 559.539062 315.96875 559.40625 315.8125 559.402344 C 315.648438 559.386719 315.511719 559.507812 315.5 559.679688 C 315.089844 566.109375 314.234375 572.496094 312.960938 578.796875 C 311.675781 585.09375 309.992188 591.308594 307.828125 597.355469 C 305.726562 603.421875 303.144531 609.320312 300.195312 615.027344 C 298.398438 618.511719 296.4375 621.921875 294.351562 625.25 L 286.109375 604.765625 C 285.316406 602.765625 283.054688 601.785156 281.050781 602.578125 C 279.054688 603.371094 278.078125 605.632812 278.871094 607.636719 L 299.609375 659.191406 C 298.5625 658.398438 297.402344 657.765625 296.140625 657.351562 L 275.101562 650.457031 C 270.621094 648.992188 265.699219 650.261719 262.496094 653.714844 L 261.890625 654.363281 C 261.890625 654.363281 261.898438 654.363281 261.898438 654.363281 C 262.003906 654.46875 262.015625 654.636719 261.921875 654.75 C 260.125 657.105469 258.171875 659.339844 256.175781 661.53125 C 254.191406 663.722656 252.113281 665.832031 250.054688 667.949219 C 247.949219 670.019531 245.847656 672.105469 243.691406 674.125 C 241.53125 676.136719 239.355469 678.140625 237.113281 680.066406 C 236.960938 680.191406 236.746094 680.171875 236.617188 680.03125 C 236.503906 679.890625 236.503906 679.691406 236.628906 679.570312 C 238.613281 677.378906 240.679688 675.261719 242.742188 673.148438 L 244.421875 671.453125 L 191.140625 669.894531 L 172.167969 594.398438 L 149.894531 637.828125 L 147.367188 631.902344 C 137.335938 608.40625 116.03125 591.640625 90.84375 587.40625 C 90.84375 587.40625 89.363281 590.859375 87.007812 596.449219 C 83.523438 589.96875 80.878906 582.847656 79.566406 575.03125 C 79.566406 575.03125 110.304688 485.332031 152.3125 458.992188 C 161.203125 454.605469 167.84375 454.660156 176.472656 455.476562 C 184.546875 456.238281 192.460938 458.011719 200.429688 459.523438 C 208.023438 460.964844 216.179688 461.480469 223.234375 458.445312 L 288.914062 538.0625 C 282.3125 538.742188 277.164062 544.3125 277.164062 551.089844 C 277.164062 558.324219 283.027344 564.195312 290.261719 564.195312 C 297.5 564.195312 303.351562 558.324219 303.351562 551.089844 C 303.351562 544.191406 298.019531 538.554688 291.246094 538.042969 C 293.445312 532.105469 308.292969 489.980469 303.3125 449.382812 C 307.597656 449.621094 311.734375 450.148438 315.464844 451.082031 L 315.457031 451.066406 C 315.457031 451.066406 322.445312 452.828125 332.136719 456.246094 C 331.378906 458.371094 330.878906 460.496094 330.78125 462.515625 C 330.777344 462.628906 330.773438 462.734375 330.773438 462.847656 C 330.757812 463.292969 330.765625 463.730469 330.796875 464.164062 C 330.800781 464.242188 330.8125 464.320312 330.816406 464.402344 C 330.855469 464.789062 330.914062 465.171875 330.988281 465.554688 C 331.007812 465.632812 331.015625 465.714844 331.03125 465.792969 C 331.125 466.207031 331.246094 466.613281 331.390625 467.011719 C 331.421875 467.097656 331.457031 467.191406 331.492188 467.277344 C 331.65625 467.6875 331.828125 468.085938 332.050781 468.476562 C 332.042969 468.46875 332.035156 468.46875 332.019531 468.46875 C 344.671875 496.703125 357.3125 524.9375 369.960938 553.167969 C 371.296875 556.167969 372.648438 559.171875 374.003906 562.171875 C 374.238281 562.6875 374.476562 563.207031 374.714844 563.722656 C 376.070312 566.71875 377.441406 569.707031 378.835938 572.691406 C 379.078125 573.199219 379.316406 573.707031 379.558594 574.21875 C 380.976562 577.242188 382.429688 580.246094 383.902344 583.238281 C 384.066406 583.566406 384.230469 583.894531 384.394531 584.222656 C 385.773438 586.996094 387.1875 589.753906 388.632812 592.492188 C 389.953125 595 391.300781 597.5 392.691406 599.972656 Z M 294.808594 626.390625 L 294.726562 626.175781 Z M 243.890625 419.953125 C 242.054688 419.253906 241.015625 418.820312 241.015625 418.820312 C 241.015625 418.855469 241.015625 418.890625 241.015625 418.921875 C 241.058594 420.128906 241.082031 421.328125 241.082031 422.527344 C 241.082031 422.753906 241.066406 422.972656 241.0625 423.199219 C 241.058594 424.21875 241.046875 425.230469 240.996094 426.246094 C 240.980469 426.753906 240.925781 427.253906 240.894531 427.761719 C 240.847656 428.492188 240.804688 429.226562 240.730469 429.957031 C 240.605469 431.195312 240.445312 432.429688 240.238281 433.660156 C 240.050781 434.789062 239.800781 435.917969 239.519531 437.039062 C 240.539062 435.382812 241.378906 433.609375 241.996094 431.761719 C 243.253906 427.957031 243.726562 423.984375 243.890625 419.953125 Z M 301.773438 449.417969 C 301.769531 449.375 301.785156 449.339844 301.785156 449.300781 C 300.386719 449.242188 298.976562 449.207031 297.550781 449.207031 C 297.386719 447.484375 297.390625 446.421875 297.390625 446.421875 C 297.390625 446.421875 303.878906 441.378906 303.878906 437.308594 C 303.878906 433.242188 298.128906 432.964844 298.128906 432.964844 C 277.921875 432.03125 254.765625 424.0625 245.34375 420.515625 C 245.144531 424.460938 244.613281 428.398438 243.285156 432.203125 C 242.210938 435.199219 240.59375 438 238.511719 440.40625 C 238.511719 440.410156 238.511719 440.414062 238.503906 440.425781 C 238.191406 441.328125 237.847656 442.222656 237.472656 443.101562 C 237.449219 443.152344 237.429688 443.203125 237.40625 443.25 C 237.046875 444.085938 236.664062 444.90625 236.242188 445.695312 C 236.21875 445.75 236.195312 445.804688 236.164062 445.851562 C 235.753906 446.625 235.316406 447.367188 234.855469 448.109375 C 234.753906 448.277344 234.640625 448.441406 234.535156 448.609375 C 234.117188 449.242188 233.679688 449.863281 233.222656 450.464844 C 233.125 450.582031 233.039062 450.710938 232.945312 450.828125 C 232.480469 451.410156 231.992188 451.976562 231.480469 452.523438 C 231.285156 452.738281 231.082031 452.949219 230.871094 453.15625 C 230.367188 453.671875 229.84375 454.171875 229.296875 454.644531 C 229.070312 454.832031 228.832031 455.007812 228.609375 455.1875 C 228.179688 455.535156 227.734375 455.859375 227.285156 456.179688 C 227.015625 456.363281 226.746094 456.554688 226.464844 456.730469 C 225.882812 457.097656 225.289062 457.449219 224.660156 457.765625 L 290.003906 536.972656 C 292.75 529.421875 306.628906 488.644531 301.773438 449.417969 Z M 306.105469 359.324219 C 306.84375 356.832031 306.207031 354.441406 304.695312 353.996094 C 303.179688 353.546875 301.355469 355.214844 300.621094 357.710938 C 299.886719 360.210938 300.515625 362.59375 302.035156 363.042969 C 303.546875 363.488281 305.371094 361.824219 306.105469 359.324219 Z M 343.953125 353.996094 C 342.4375 353.546875 340.613281 355.214844 339.882812 357.710938 C 339.144531 360.210938 339.78125 362.59375 341.292969 363.042969 C 342.804688 363.488281 344.628906 361.824219 345.371094 359.324219 C 346.101562 356.832031 345.472656 354.441406 343.953125 353.996094 Z M 371.40625 336.785156 C 371.226562 337.449219 371.089844 338.113281 370.992188 338.796875 C 370.542969 341.941406 371.625 345.132812 373.671875 347.261719 Z M 343.113281 399.542969 L 344.578125 406.3125 C 346.304688 401.933594 348.179688 397.617188 350.214844 393.371094 C 356.578125 394.246094 362.941406 394.859375 369.285156 393.820312 C 371.125 396.871094 368.515625 401.289062 365.730469 403.507812 C 362.945312 405.71875 359.304688 406.460938 355.8125 407.140625 C 356.332031 408.617188 356.785156 410.109375 357.230469 411.601562 C 356.917969 411.03125 356.601562 410.464844 356.253906 409.925781 C 356.175781 409.800781 356.015625 409.75 355.882812 409.8125 C 355.730469 409.882812 355.667969 410.058594 355.738281 410.199219 C 356.976562 412.851562 357.988281 415.585938 358.710938 418.378906 C 359.4375 421.183594 359.933594 424.046875 360.082031 426.925781 C 360.304688 429.808594 360.191406 432.699219 359.832031 435.570312 C 359.484375 438.441406 358.828125 441.277344 357.953125 444.058594 C 357.898438 444.226562 357.976562 444.40625 358.140625 444.476562 C 358.3125 444.558594 358.523438 444.480469 358.601562 444.308594 C 359.839844 441.605469 360.679688 438.714844 361.175781 435.769531 C 361.566406 433.472656 361.714844 431.136719 361.679688 428.796875 L 381.640625 421.449219 C 380.855469 422.453125 380.113281 423.484375 379.484375 424.582031 C 378.683594 425.972656 377.988281 427.414062 377.492188 428.925781 C 377.441406 429.082031 377.503906 429.246094 377.640625 429.339844 C 377.8125 429.433594 378.027344 429.390625 378.128906 429.21875 C 378.9375 427.886719 379.75 426.574219 380.628906 425.316406 C 381.519531 424.0625 382.433594 422.824219 383.417969 421.65625 C 383.773438 421.21875 384.144531 420.808594 384.515625 420.394531 L 389.144531 418.6875 L 388.613281 416.234375 C 389.042969 415.839844 389.46875 415.453125 389.90625 415.058594 C 390.003906 414.976562 390.035156 414.824219 389.96875 414.699219 C 389.890625 414.558594 389.710938 414.503906 389.570312 414.578125 C 389.171875 414.796875 388.796875 415.054688 388.410156 415.292969 L 388.125 413.976562 C 387.410156 414.398438 386.78125 414.730469 386.335938 414.910156 C 381.664062 416.808594 376.125 416.394531 371.785156 413.828125 C 369.535156 412.5 367.4375 409.933594 368.386719 407.503906 C 369.238281 405.332031 371.925781 404.679688 374.234375 404.324219 C 377.78125 403.785156 381.320312 403.238281 384.871094 402.691406 C 385.128906 402.675781 385.390625 402.667969 385.652344 402.640625 C 386.914062 402.511719 388.171875 402.34375 389.414062 402.050781 C 389.558594 402.011719 389.671875 401.886719 389.675781 401.726562 C 389.691406 401.53125 389.539062 401.367188 389.347656 401.355469 C 388.085938 401.285156 386.835938 401.289062 385.589844 401.28125 L 385.375 401.28125 L 384.664062 398 C 384.207031 398 383.78125 397.980469 383.433594 397.917969 C 377.886719 396.957031 372.609375 394.488281 368.324219 390.835938 C 366.820312 389.558594 365.390625 388.074219 364.761719 386.199219 C 364.121094 384.328125 364.496094 382 366.066406 380.8125 C 371.058594 381.957031 375.96875 383.394531 380.804688 385.054688 C 380.304688 384.808594 379.824219 384.515625 379.332031 384.230469 L 383.902344 386.671875 C 384.023438 386.738281 384.183594 386.710938 384.273438 386.59375 C 384.375 386.46875 384.347656 386.28125 384.222656 386.183594 C 382.730469 384.984375 381.148438 383.898438 379.539062 382.859375 C 377.929688 381.816406 376.269531 380.863281 374.585938 379.949219 C 373.953125 379.625 373.320312 379.304688 372.6875 378.984375 C 369.84375 376.113281 367.328125 372.8125 364.933594 369.5625 C 363.402344 367.496094 361.863281 364.550781 363.519531 362.570312 C 364.472656 361.410156 366.210938 361.175781 367.652344 361.59375 C 369.097656 362.011719 370.308594 362.957031 371.480469 363.898438 C 373.496094 365.488281 375.894531 367.066406 378.316406 368.699219 L 374.859375 352.734375 C 370.796875 354.113281 365.980469 353.582031 362.195312 351.40625 C 359.148438 349.660156 356.742188 347.042969 354.917969 344.027344 C 354.6875 363.070312 350.675781 382.070312 343.113281 399.542969 Z M 308.742188 698.3125 L 307.964844 698.367188 C 307.097656 698.425781 306.289062 698.765625 305.609375 699.273438 C 305.019531 698.273438 304.394531 697.289062 303.734375 696.332031 C 302.851562 695.035156 301.886719 693.804688 300.902344 692.59375 C 299.898438 691.390625 298.863281 690.210938 297.765625 689.101562 C 296.671875 687.984375 295.546875 686.902344 294.332031 685.910156 C 294.210938 685.808594 294.027344 685.796875 293.894531 685.90625 C 293.746094 686.015625 293.714844 686.238281 293.835938 686.390625 C 294.777344 687.632812 295.773438 688.816406 296.757812 690.007812 L 299.714844 693.570312 L 302.699219 697.117188 C 303.464844 698.011719 304.230469 698.90625 305.007812 699.796875 C 304.746094 700.082031 304.523438 700.402344 304.339844 700.761719 L 303.980469 701.464844 L 316.621094 701.464844 L 314.210938 695.484375 C 312.929688 697.074219 311.007812 698.160156 308.742188 698.3125 Z M 149.894531 637.835938 L 149.894531 637.828125 Z M 149.894531 637.835938"/></g></svg>